<?xml version="1.0" encoding="UTF-8"?>
<svg version="1.1" xmlns="http://www.w3.org/2000/svg" width="707" height="353">
<path d="M0 0 C2.61328125 2.2578125 2.61328125 2.2578125 5.3125 5.125 C10.85700512 10.90111222 16.55506711 16.24066495 23 21 C23.556875 20.43152344 24.11375 19.86304687 24.6875 19.27734375 C29.03626182 14.87716076 33.43560672 10.63934838 38.16015625 6.64453125 C39.96680823 5.02966823 41.52073758 3.31260818 43.125 1.5 C46 -1 46 -1 48.86328125 -0.984375 C52.86823392 0.27247192 54.37115702 2.05962829 57.0625 5.25 C60.67503609 9.47885262 60.67503609 9.47885262 64.578125 13.43359375 C67.34223993 16.36266393 68.91597649 19.2017768 70.6875 22.8125 C71.26886719 23.97394531 71.85023438 25.13539062 72.44921875 26.33203125 C75.40354435 33.31971824 76.29521195 39.44520788 76.125 47 C76.11597656 47.77472656 76.10695312 48.54945312 76.09765625 49.34765625 C76.07439388 51.23190843 76.0385364 53.11599832 76 55 C77.27230469 55.03867188 77.27230469 55.03867188 78.5703125 55.078125 C97.41761968 55.98942337 114.47015632 62.35416192 127.94140625 75.9609375 C129.375 77.75 129.375 77.75 131 81 C129.88622615 85.43467166 127.42048442 87.93048819 124.2109375 91.08203125 C123.51600693 91.77059456 123.51600693 91.77059456 122.80703735 92.47306824 C121.33662664 93.92678699 119.85609895 95.36968043 118.375 96.8125 C117.37170722 97.80073367 116.36909543 98.78965921 115.3671875 99.77929688 C112.91807208 102.19308851 110.46222788 104.59959731 108 107 C108.78761719 107.77601563 109.57523438 108.55203125 110.38671875 109.3515625 C113 112 113 112 114.8125 114.375 C116.75096874 116.70116248 118.63075848 118.43975618 120.9375 120.375 C124.74599183 123.68237449 127.66277083 126.48672988 130 131 C128.72637909 138.004915 123.38123871 141.76352791 118 146 C117.21109375 146.62261719 116.4221875 147.24523437 115.609375 147.88671875 C107.93327809 153.59426823 98.11397905 159.15996165 88.33203125 159.09765625 C87.43935547 159.09443359 86.54667969 159.09121094 85.62695312 159.08789062 C84.23379883 159.07532227 84.23379883 159.07532227 82.8125 159.0625 C81.87212891 159.05798828 80.93175781 159.05347656 79.96289062 159.04882812 C77.64186288 159.03704626 75.32096356 159.02059558 73 159 C73.08701172 160.11181641 73.08701172 160.11181641 73.17578125 161.24609375 C73.81871493 176.25400287 68.89076958 192.513945 59 204 C58.071875 205.5159375 58.071875 205.5159375 57.125 207.0625 C54.71586551 210.39277415 52.65682408 212.13427343 49 214 C44.99390423 213.67310259 42.91255143 212.45115656 40 209.75 C39.30777344 209.11320313 38.61554688 208.47640625 37.90234375 207.8203125 C35.56248923 205.5813552 33.26242823 203.31760941 31 201 C29.39719222 199.3944756 27.7929165 197.79041586 26.1875 196.1875 C24.79166667 194.79166667 23.39583333 193.39583333 22 192 C21.37351562 192.6496875 20.74703125 193.299375 20.1015625 193.96875 C19.28429687 194.8040625 18.46703125 195.639375 17.625 196.5 C16.81289062 197.3353125 16.00078125 198.170625 15.1640625 199.03125 C13 201 13 201 11 201 C10.73574219 201.58394531 10.47148438 202.16789063 10.19921875 202.76953125 C7.52263122 207.74780969 3.82015979 211.34994293 -1.5 213.25 C-7.71715943 212.80591718 -10.54028743 209.67123143 -14.453125 205.19140625 C-20.05378495 198.34100355 -24.56083019 191.19126592 -28 183 C-28.37898438 182.10925781 -28.75796875 181.21851563 -29.1484375 180.30078125 C-30.3328469 175.70983655 -30.21249592 171.34304924 -30.125 166.625 C-30.11597656 165.69816406 -30.10695312 164.77132812 -30.09765625 163.81640625 C-30.07422937 161.54399923 -30.04142748 159.2721382 -30 157 C-31.00389771 157.06247925 -31.00389771 157.06247925 -32.02807617 157.1262207 C-49.22796808 158.00983051 -66.8063716 151.27313725 -79.875 140.1875 C-82.21097604 137.98733652 -84.21764287 135.67353569 -86 133 C-85.72330471 130.64809002 -85.05656463 129.11312926 -84 127 C-83.34 127 -82.68 127 -82 127 C-81.78988281 126.46375 -81.57976562 125.9275 -81.36328125 125.375 C-79.47583924 122.08684887 -76.87710134 119.6278088 -74.1875 117 C-73.40536133 116.21882813 -73.40536133 116.21882813 -72.60742188 115.421875 C-69.55173733 112.40052398 -66.41215427 109.62376373 -63 107 C-63.44730469 106.55269531 -63.89460938 106.10539062 -64.35546875 105.64453125 C-67.90364583 102.09635417 -71.45182292 98.54817708 -75 95 C-75.56847656 94.443125 -76.13695312 93.88625 -76.72265625 93.3125 C-80.05704936 90.02766262 -83.16612364 86.74071679 -86 83 C-85.34 81.35 -84.68 79.7 -84 78 C-83.34 78 -82.68 78 -82 78 C-81.79375 77.46246094 -81.5875 76.92492187 -81.375 76.37109375 C-76.39045514 67.77558599 -66.17114102 60.3911255 -57 57 C-56.35812744 56.74323486 -55.71625488 56.48646973 -55.05493164 56.22192383 C-49.22364674 54.0411962 -44.1252087 53.62528461 -37.9375 53.8125 C-37.07189453 53.82603516 -36.20628906 53.83957031 -35.31445312 53.85351562 C-33.20935826 53.8884067 -31.10459026 53.94219335 -29 54 C-29.04640625 53.3915625 -29.0928125 52.783125 -29.140625 52.15625 C-29.94190105 32.69668871 -21.43344431 15.92570528 -8.734375 1.75 C-5.70342588 -1.30825497 -4.02887279 -1.31388925 0 0 Z M-6.4375 13.9375 C-16.10238895 25.48822094 -19.45635662 39.05946695 -19.76171875 53.92578125 C-19.27215554 57.27360034 -19.27215554 57.27360034 -16.08203125 59.23046875 C-15.06496094 59.81441406 -14.04789063 60.39835937 -13 61 C-10.67420899 64.48868651 -10.58134543 65.89718519 -11 70 C-12.125 72.375 -12.125 72.375 -14 74 C-16.875 74.5625 -16.875 74.5625 -20 74 C-22.85914927 71.67278548 -24.65875418 69.70784736 -26.26171875 66.3828125 C-27.81344818 63.736716 -27.81344818 63.736716 -30.8203125 63.22265625 C-46.00024043 62.48698598 -56.05515988 66.45723233 -67.87109375 76.03515625 C-70.32267507 78.17891447 -70.32267507 78.17891447 -73 82 C-67.39 87.61 -61.78 93.22 -56 99 C-50.5945129 94.9722819 -50.5945129 94.9722819 -45.3046875 90.796875 C-34.35480122 82.25967553 -21.23651863 82.88038351 -8 84 C-3.87562919 84.58932575 0.07856584 85.58322379 4 87 C3.7834375 86.36578125 3.566875 85.7315625 3.34375 85.078125 C1.30643265 78.24933908 0.67247426 71.91517701 0.625 64.8125 C0.61146484 63.98202148 0.59792969 63.15154297 0.58398438 62.29589844 C0.63843882 54.66319992 2.34196059 47.73073868 6.8125 41.4375 C7.27269531 40.77621094 7.73289062 40.11492187 8.20703125 39.43359375 C10.78196643 35.93863816 13.38848607 32.46767835 16 29 C13.4290186 26.34191968 10.84124519 23.70081798 8.25 21.0625 C7.52039063 20.30775391 6.79078125 19.55300781 6.0390625 18.77539062 C5.33007812 18.05673828 4.62109375 17.33808594 3.890625 16.59765625 C2.91657715 15.60004272 2.91657715 15.60004272 1.92285156 14.58227539 C-1.36930948 11.87322311 -3.00951651 11.21269261 -6.4375 13.9375 Z M44.25 15.1875 C41.80161757 17.39636676 39.34883414 19.53381824 36.75 21.5625 C33.7663501 24.20709877 32.04815006 26.61267489 30 30 C30.60328125 30.70125 31.2065625 31.4025 31.828125 32.125 C42.17184308 44.40399436 46.07105546 54.78422031 45 71 C44.18622201 76.82100375 42.63481495 82.36057531 41 88 C42.00417969 87.71125 43.00835937 87.4225 44.04296875 87.125 C60.08262092 82.69659695 73.36196682 82.61924256 88.32421875 90.4140625 C91.538826 92.31936256 93.61148695 94.1491941 96 97 C96.598125 97.598125 97.19625 98.19625 97.8125 98.8125 C98.204375 99.204375 98.59625 99.59625 99 100 C100.99983534 99.20882096 100.99983534 99.20882096 103 98 C103.495 96.515 103.495 96.515 104 95 C105.31788138 94.30328564 106.65378018 93.64024559 108 93 C109.84850226 91.39182187 109.84850226 91.39182187 111.5625 89.5625 C112.14128906 88.96566406 112.72007812 88.36882812 113.31640625 87.75390625 C113.87199219 87.17511719 114.42757812 86.59632813 115 86 C115.9977247 84.99772986 116.99695588 83.99694659 118 83 C115.52412984 76.53682732 108.21399159 72.90101544 102.14697266 70.1640625 C93.08254447 66.50528681 82.86145871 63.03317167 73 65 C70.99842823 66.92425784 70.0123369 68.6356782 68.8671875 71.15234375 C68 73 68 73 66 74 C62.99525503 74.13559318 60.00931153 74.04299016 57 74 C57 69.38 57 64.76 57 60 C58.11375 59.731875 59.2275 59.46375 60.375 59.1875 C64.21840951 58.34190981 64.21840951 58.34190981 66 55 C67.48524791 42.42139602 65.68598269 33.71150143 59 23 C58.525625 22.16339844 58.05125 21.32679687 57.5625 20.46484375 C55.51265615 16.93526888 53.66870723 14.02411433 50 12 C47.15991156 12 46.32927752 13.29761404 44.25 15.1875 Z M22 37 C13.3154421 46.7437296 13.3154421 46.7437296 10 59 C9.94585937 59.94617188 9.89171875 60.89234375 9.8359375 61.8671875 C9.47807209 74.65274254 12.20819061 86.73157241 21.2265625 96.3828125 C21.81179687 96.91648438 22.39703125 97.45015625 23 98 C33.64654203 83.40586373 36.91562985 71.21978441 34.64453125 53.17578125 C32.86456571 46.52181609 27.87662214 41.65319124 23 37 C22.67 37 22.34 37 22 37 Z M-46 103 C-47.24236977 105.111325 -47.24236977 105.111325 -48 107 C-45.87440853 110.50097419 -43.34981631 112.14211483 -39.765625 114.0546875 C-38.26118129 114.860164 -36.81047132 115.76469701 -35.375 116.6875 C-27.50120835 121.03880591 -12.95393818 120.25117369 -4.32421875 117.89453125 C-1.01811089 116.62209646 2.1865522 115.16384496 5.375 113.625 C5.98303467 113.33294678 6.59106934 113.04089355 7.2175293 112.73999023 C10.68671961 110.97211689 12.95664381 109.33699177 15 106 C13.29592618 104.72346071 11.58652649 103.4540296 9.875 102.1875 C8.92367187 101.47980469 7.97234375 100.77210938 6.9921875 100.04296875 C-8.66200633 89.35479202 -32.20834456 89.17862116 -46 103 Z M31.8125 104.875 C30.9153125 105.926875 30.9153125 105.926875 30 107 C41.00196692 116.33624856 53.34660241 120.56115475 67.6875 119.8125 C77.91507202 118.72757281 84.20803453 115.72356359 92 109 C91.19369164 103.60484845 87.07170425 101.19698451 83 98 C69.25684608 88.18346148 43.20210066 93.54992965 31.8125 104.875 Z M-57.5625 114.375 C-59.22085796 115.88807063 -59.22085796 115.88807063 -59 118 C-59.58652344 118.26167969 -60.17304687 118.52335937 -60.77734375 118.79296875 C-66.08256671 121.6740125 -70.2610781 126.68326925 -73 132 C-61.57219028 143.0766759 -48.22852875 147.50491465 -32.45092773 147.64355469 C-29.4560827 147.52835432 -27.4788385 147.39042226 -25.1171875 145.46484375 C-23.9132403 143.59492473 -23.9132403 143.59492473 -23 141.640625 C-22 140 -22 140 -18.4375 138.8125 C-15 139 -15 139 -12.5 140.375 C-10.25333405 144.30666541 -11.15146851 147.68355721 -12 152 C-12.94875 152.28875 -13.8975 152.5775 -14.875 152.875 C-18.05211578 153.76825109 -18.05211578 153.76825109 -20 156 C-23.40549193 169.96251693 -18.09048417 182.1588268 -11 194 C-8.93671976 196.70754561 -6.90093279 199.17865486 -4 201 C-1.01560067 201.34452273 -1.01560067 201.34452273 0.5078125 199.56640625 C1.04148437 198.90511719 1.57515625 198.24382812 2.125 197.5625 C6.14268821 192.75331861 10.52627373 188.38242574 15 184 C14.62488281 183.57589844 14.24976562 183.15179688 13.86328125 182.71484375 C12.2180477 180.82924862 10.60500343 178.91993318 9 177 C8.54753906 176.47148437 8.09507813 175.94296875 7.62890625 175.3984375 C-0.88301123 164.63258548 -1.24164417 151.12636321 0 138 C0.61256645 135.10029685 1.32754783 132.51496023 2.44140625 129.77734375 C3.25621417 127.79177619 3.25621417 127.79177619 2 125 C1.41992188 125.20496094 0.83984375 125.40992188 0.2421875 125.62109375 C-12.99493919 130.18637342 -26.57800949 130.73726841 -39.578125 124.828125 C-45.50604122 121.64824941 -50.25508487 117.74491513 -55 113 C-56.22177328 112.88989535 -56.22177328 112.88989535 -57.5625 114.375 Z M22 114 C11.05332989 127.46703745 7.78719206 140.28612252 9.20703125 157.51171875 C10.51597665 165.75375954 16.23592627 171.35019205 22 177 C32.99053817 165.23585599 35.51944317 156.88644829 35.08447266 140.96582031 C34.6846981 131.66239629 30.73843753 122.46362093 24.125 115.8125 C23.42375 115.214375 22.7225 114.61625 22 114 Z M93 119 C92.39671875 119.66128906 91.7934375 120.32257813 91.171875 121.00390625 C88.62088701 123.34842939 86.27255112 124.40428915 83.0625 125.6875 C81.53302734 126.31205078 81.53302734 126.31205078 79.97265625 126.94921875 C69.87485708 130.51861162 58.46979315 130.01128844 48.3671875 126.75390625 C45.92928995 125.97748013 43.51475807 125.46088982 41 125 C41.28875 126.09957031 41.5775 127.19914063 41.875 128.33203125 C46.0841743 144.85589705 46.38323624 158.38905674 37.5546875 173.65234375 C35.62716895 176.56299362 33.60254897 178.68662314 31 181 C30.34 181.99 29.68 182.98 29 184 C34.94 189.94 40.88 195.88 47 202 C57.54021412 193.5678287 62.27083255 180.05899792 63.80859375 166.8828125 C64.07659171 162.84643508 64.13917379 159.91590991 63 156 C60.11490087 153.57577814 60.11490087 153.57577814 57 152 C55.49065783 148.98131566 55.82489328 146.32702771 56 143 C56.66 142.01 57.32 141.02 58 140 C61.86974386 139.49836654 64.06891303 139.30168477 67.25 141.6875 C69 144 69 144 70.375 146.6875 C71.80856932 149.22420606 71.80856932 149.22420606 74.5625 149.8125 C75.696875 149.874375 76.83125 149.93625 78 150 C79.10214844 150.0928125 79.10214844 150.0928125 80.2265625 150.1875 C91.48768876 150.75949371 103.650865 145.33504616 112.5 138.5 C115.0232222 135.9767778 115.81665727 134.28706313 117 131 C114.19151503 128.16266225 111.37756077 125.33081251 108.5625 122.5 C107.35883789 121.28376953 107.35883789 121.28376953 106.13085938 120.04296875 C105.36708984 119.27597656 104.60332031 118.50898438 103.81640625 117.71875 C103.10943604 117.00654297 102.40246582 116.29433594 101.67407227 115.56054688 C98.21220232 112.33343988 95.85967597 116.4550893 93 119 Z " fill="#000000" transform="translate(105,70)"/>
<path d="M0 0 C51.77777778 0 51.77777778 0 59.9375 6.25 C60.9584375 7.61125 60.9584375 7.61125 62 9 C62.49886719 9.5878125 62.99773438 10.175625 63.51171875 10.78125 C71.09809226 20.03919733 71.93054511 29.21746401 71 41 C70.44480479 44.01606046 69.48687986 46.32892654 68 49 C67.5359375 49.90621094 67.071875 50.81242187 66.59375 51.74609375 C61.75172909 60.34524881 56.54895786 63.32650477 47.30859375 66.11328125 C42.53415146 67.26464881 37.88500572 67.22177518 33 67.125 C30.03 67.08375 27.06 67.0425 24 67 C24 73.93 24 80.86 24 88 C16.08 88 8.16 88 0 88 C0 58.96 0 29.92 0 0 Z M24 21 C24 28.92 24 36.84 24 45 C28.0528125 45.1546875 28.0528125 45.1546875 32.1875 45.3125 C33.45049927 45.38078003 33.45049927 45.38078003 34.73901367 45.45043945 C38.97482906 45.52847956 40.53067959 45.375951 43.96484375 42.625 C47.00168224 38.70800295 48.24417495 35.95326511 47.9375 31 C47.26804463 26.73323025 45.40737894 24.67722631 42 22 C38.37918537 20.79306179 35.0749281 20.89217921 31.3125 20.9375 C28.899375 20.958125 26.48625 20.97875 24 21 Z " fill="#000000" transform="translate(530,103)"/>
<path d="M0 0 C18.81 0 37.62 0 57 0 C57 6.93 57 13.86 57 21 C46.11 21 35.22 21 24 21 C24 24.63 24 28.26 24 32 C33.9 32 43.8 32 54 32 C54 38.93 54 45.86 54 53 C44.1 53 34.2 53 24 53 C24 57.62 24 62.24 24 67 C34.89 67 45.78 67 57 67 C57 73.93 57 80.86 57 88 C38.19 88 19.38 88 0 88 C0 58.96 0 29.92 0 0 Z " fill="#000000" transform="translate(372,103)"/>
<path d="M0 0 C3.96 0 7.92 0 12 0 C13.75626446 3.2884538 15.50508512 6.58052967 17.25 9.875 C17.98669922 11.25171875 17.98669922 11.25171875 18.73828125 12.65625 C21.901933 18.64609732 24.58727932 24.67393004 27 31 C27.82756445 33.02320263 28.65986921 35.04448314 29.5 37.0625 C29.8815625 37.98160156 30.263125 38.90070313 30.65625 39.84765625 C34.06813747 47.85170621 37.73470704 55.71899464 41.5 63.5625 C41.97308594 64.55185547 42.44617188 65.54121094 42.93359375 66.56054688 C43.39894531 67.53185547 43.86429688 68.50316406 44.34375 69.50390625 C44.79234375 70.44379395 45.2409375 71.38368164 45.703125 72.35205078 C46.51598623 74.01174448 47.3559107 75.65874453 48.234375 77.28466797 C48.60046875 77.96287598 48.9665625 78.64108398 49.34375 79.33984375 C49.82618164 80.19437134 49.82618164 80.19437134 50.31835938 81.06616211 C51 83 51 83 51 89 C43.08 89 35.16 89 27 89 C23 81 23 81 23 79 C6.665 79.495 6.665 79.495 -10 80 C-11.32 82.97 -12.64 85.94 -14 89 C-22.25 89 -30.5 89 -39 89 C-38.19175746 83.3423022 -37.59929783 80.57036529 -35.19921875 75.7265625 C-34.63396484 74.5715625 -34.06871094 73.4165625 -33.48632812 72.2265625 C-32.88711212 71.02584528 -32.28750043 69.82532544 -31.6875 68.625 C-30.52355806 66.26360284 -29.36077306 63.90163503 -28.19921875 61.5390625 C-27.36668579 59.85103516 -27.36668579 59.85103516 -26.51733398 58.12890625 C-24.90108769 54.79603215 -23.38167292 51.43327193 -21.90112305 48.03857422 C-20.67843016 45.27252555 -19.36771916 42.55185412 -18.05859375 39.82592773 C-15.31061514 34.09895173 -12.69255229 28.40570165 -10.5 22.4375 C-7.62532636 14.65316038 -3.80723675 7.35939809 0 0 Z M6 39 C2.3507131 45.24280526 -0.65346233 50.86335037 -2 58 C3.28 58 8.56 58 14 58 C13.10656817 53.53284086 11.76463639 49.80385599 9.9375 45.6875 C9.65583984 45.04232422 9.37417969 44.39714844 9.08398438 43.73242188 C8.3937257 42.15301642 7.69746802 40.57623507 7 39 C6.67 39 6.34 39 6 39 Z " fill="#000000" transform="translate(638,102)"/>
<path d="M0 0 C12.21 0 24.42 0 37 0 C37.16043524 16.07026294 37.16043524 16.07026294 37.1953125 22.97265625 C37.21913278 27.66441162 37.24717104 32.35585182 37.30175781 37.04736328 C37.34553565 40.83401546 37.3692036 44.62032921 37.37950897 48.40721512 C37.38684359 49.84478704 37.40116499 51.28234251 37.42292023 52.71976852 C37.56431179 62.4579479 37.03223541 70.92079821 30.7734375 78.8046875 C20.98976484 87.24987725 11.07572519 90.94963367 -2 90 C-11.65572177 88.6402816 -19.37404071 85.67828022 -25.5625 77.95703125 C-29.5060482 72.58823329 -31.13820993 68.66642817 -31.09765625 62.015625 C-31.09443359 61.08105469 -31.09121094 60.14648438 -31.08789062 59.18359375 C-31.07951172 58.21550781 -31.07113281 57.24742187 -31.0625 56.25 C-31.05798828 55.26644531 -31.05347656 54.28289062 -31.04882812 53.26953125 C-31.03706483 50.84629209 -31.02062684 48.42317727 -31 46 C-27.52085059 45.97112186 -24.04173169 45.95324313 -20.5625 45.9375 C-19.07266602 45.92493164 -19.07266602 45.92493164 -17.55273438 45.91210938 C-16.60849609 45.90888672 -15.66425781 45.90566406 -14.69140625 45.90234375 C-13.81685791 45.89710693 -12.94230957 45.89187012 -12.04125977 45.88647461 C-10 46 -10 46 -9 47 C-8.79420839 50.49388418 -8.68033761 53.98611188 -8.57421875 57.484375 C-7.92139291 61.48126787 -6.81472383 63.14830982 -4 66 C-1.70013269 67.14993366 -0.18530912 67.2316929 2.375 67.3125 C3.14585937 67.34988281 3.91671875 67.38726562 4.7109375 67.42578125 C8.05616574 66.80354596 8.97537133 65.74793391 11 63 C11.62131478 59.8146055 11.60494511 56.65983708 11.609375 53.421875 C11.62591125 52.4953009 11.64244751 51.56872681 11.65948486 50.61407471 C11.70800726 47.659316 11.72934524 44.70507211 11.75 41.75 C11.77815613 39.74476571 11.80808305 37.73955544 11.83984375 35.734375 C11.91376745 30.82295904 11.96331624 25.91182959 12 21 C8.04 21 4.08 21 0 21 C0 14.07 0 7.14 0 0 Z " fill="#000000" transform="translate(473,103)"/>
<path d="M0 0 C14.85 0 29.7 0 45 0 C45 6.93 45 13.86 45 21 C41.37 21 37.74 21 34 21 C34 36.51 34 52.02 34 68 C37.96 68 41.92 68 46 68 C46 74.6 46 81.2 46 88 C43.67782321 89.1610884 42.33438469 89.12673847 39.74975586 89.12939453 C38.87222153 89.13254669 37.99468719 89.13569885 37.09056091 89.13894653 C35.66708092 89.13591019 35.66708092 89.13591019 34.21484375 89.1328125 C33.24341934 89.13376923 32.27199493 89.13472595 31.27113342 89.13571167 C29.21582983 89.13639283 27.16052408 89.13454299 25.10522461 89.13037109 C21.94705411 89.1250162 18.78902546 89.13032122 15.63085938 89.13671875 C13.63802052 89.13605807 11.64518175 89.13477712 9.65234375 89.1328125 C8.70133286 89.13483673 7.75032196 89.13686096 6.77049255 89.13894653 C5.89611038 89.13579437 5.02172821 89.13264221 4.12084961 89.12939453 C3.34744736 89.12859894 2.5740451 89.12780334 1.77720642 89.12698364 C0 89 0 89 -1 88 C-1.08669432 86.5112814 -1.10703494 85.018555 -1.09765625 83.52734375 C-1.09443359 82.62822266 -1.09121094 81.72910156 -1.08789062 80.80273438 C-1.07951172 79.85720703 -1.07113281 78.91167969 -1.0625 77.9375 C-1.05798828 76.98810547 -1.05347656 76.03871094 -1.04882812 75.06054688 C-1.03700128 72.70700469 -1.01906521 70.35349468 -1 68 C2.96 68 6.92 68 11 68 C11 52.49 11 36.98 11 21 C7.37 21 3.74 21 0 21 C0 14.07 0 7.14 0 0 Z " fill="#000000" transform="translate(244,103)"/>
<path d="M0 0 C21.78 0 43.56 0 66 0 C66 6.93 66 13.86 66 21 C59.07 21 52.14 21 45 21 C45 43.11 45 65.22 45 88 C37.08 88 29.16 88 21 88 C21 65.89 21 43.78 21 21 C14.07 21 7.14 21 0 21 C0 14.07 0 7.14 0 0 Z " fill="#000000" transform="translate(294,103)"/>
<path d="M0 0 C2.7890625 1.09375 2.7890625 1.09375 5.625 2.5 C11.89452252 5.2890733 17.22781253 5.54033411 24 5 C23.75830078 6.10794922 23.75830078 6.10794922 23.51171875 7.23828125 C22.44041882 13.02002971 22.782142 18.4523389 24 24.1875 C25.56152766 31.55061582 25.56152766 31.55061582 25 35 C22.9375 37.9375 22.9375 37.9375 20 40 C16.3125 40 16.3125 40 13 39 C11.09681116 36.14521674 10.5380901 34.58058692 9.875 31.3125 C9.70742188 30.50425781 9.53984375 29.69601562 9.3671875 28.86328125 C9.24601562 28.24839844 9.12484375 27.63351562 9 27 C8.484375 27.515625 7.96875 28.03125 7.4375 28.5625 C4.0289729 30.57265701 1.76893143 29.79727396 -2 29 C-3.0250719 25.73840759 -3.2176205 24.44560389 -1.6875 21.3125 C0 19 0 19 2 17 C0.96939453 16.85304687 0.96939453 16.85304687 -0.08203125 16.703125 C-0.98308594 16.55359375 -1.88414063 16.4040625 -2.8125 16.25 C-3.70582031 16.11078125 -4.59914063 15.9715625 -5.51953125 15.828125 C-8.56711449 14.81066414 -9.43803981 13.77007826 -11 11 C-11.5 7.5 -11.5 7.5 -11 4 C-7.55792059 0.05173244 -5.08012398 -0.40666017 0 0 Z M10 22 C11 24 11 24 11 24 Z " fill="#000000" transform="translate(46,229)"/>
<path d="M0 0 C2.4375 1.625 2.4375 1.625 4 4 C4.58514474 7.51086845 4.44797485 9.24658776 2.625 12.3125 C-1.32835463 14.85394226 -5.38267558 14.82376624 -10 15 C-9.34 15.515625 -8.68 16.03125 -8 16.5625 C-5.33040242 19.81607205 -5.61333059 21.90130426 -6 26 C-7 27 -7 27 -10.3125 27.25 C-14.22637577 26.98465249 -15.1220795 26.41414965 -18 24 C-18.18175781 24.69867188 -18.36351562 25.39734375 -18.55078125 26.1171875 C-18.80214844 27.02726562 -19.05351562 27.93734375 -19.3125 28.875 C-19.55613281 29.77992188 -19.79976562 30.68484375 -20.05078125 31.6171875 C-21 34 -21 34 -24 36 C-27.87338754 36.42255137 -30.11598609 36.56667558 -33.4375 34.4375 C-35.67473756 30.94740941 -35.52424205 29.12840613 -35 25 C-34.36183852 23.28081498 -33.69212513 21.57317844 -33 19.875 C-30.50628823 13.56169449 -30.61646806 7.70115529 -31 1 C-30.18917969 1.09539062 -29.37835938 1.19078125 -28.54296875 1.2890625 C-21.81008619 1.96313456 -16.05430201 1.89182866 -9.44140625 0.49609375 C-6.17437868 -0.16776625 -3.31390147 -0.40578385 0 0 Z " fill="#000000" transform="translate(215,234)"/>
<path d="M0 0 C2.39858181 1.71327272 2.95341652 2.82786532 3.73046875 5.69921875 C3.88128906 6.68535156 4.03210938 7.67148438 4.1875 8.6875 C4.34605469 9.68136719 4.50460938 10.67523438 4.66796875 11.69921875 C4.77753906 12.45847656 4.88710937 13.21773437 5 14 C5.70125 13.175 6.4025 12.35 7.125 11.5 C10 9 10 9 13.1875 8.5 C14.115625 8.665 15.04375 8.83 16 9 C18 12 18 12 17.9375 14.9375 C16.78580061 18.69971802 15.21991837 19.85338775 12 22 C12.66386719 22.01417969 13.32773438 22.02835938 14.01171875 22.04296875 C18.54962625 22.288082 21.34013363 22.56008909 25.1875 25.125 C27 28 27 28 27.25 31.625 C26 35 26 35 23.3125 37.1875 C18.22362121 38.9466186 13.41384493 36.58495081 8.5234375 35 C2.88540383 33.39984854 -2.42462489 33.14154163 -8 35 C-8.33 34.34 -8.66 33.68 -9 33 C-8.67 32.01 -8.34 31.02 -8 30 C-7.60057487 25.30675469 -8.29078021 21.55738967 -9.5 17 C-11.67931167 8.65813715 -11.67931167 8.65813715 -11 4 C-8.10582692 -0.51491 -5.12365602 -0.65210168 0 0 Z " fill="#000000" transform="translate(194,86)"/>
<path d="M0 0 C5.50840781 0.15648886 5.50840781 0.15648886 8 1.68359375 C10.62535369 6.16213827 9.94638643 10.25040262 9.0625 15.18359375 C8.07209504 21.50490325 7.09127621 28.55364618 10.0625 34.49609375 C9.16789062 34.51027344 8.27328125 34.52445313 7.3515625 34.5390625 C-0.07877384 34.83215679 -5.28927142 35.75072736 -11.75390625 39.40234375 C-14.98576438 41.02116356 -17.41270907 41.13055612 -20.9375 40.49609375 C-23.375 38.87109375 -23.375 38.87109375 -24.9375 36.49609375 C-25.4375 33.49609375 -25.4375 33.49609375 -24.9375 30.49609375 C-22.70543569 27.64828756 -21.38757001 26.64611709 -17.9375 25.49609375 C-16.54310336 25.42943999 -15.14580125 25.41071176 -13.75 25.43359375 C-11.8628125 25.46453125 -11.8628125 25.46453125 -9.9375 25.49609375 C-9.9375 24.83609375 -9.9375 24.17609375 -9.9375 23.49609375 C-10.88625 23.24859375 -11.835 23.00109375 -12.8125 22.74609375 C-15.9375 21.49609375 -15.9375 21.49609375 -17.375 19.74609375 C-18.12029994 16.76489398 -17.61182816 14.46313765 -16.9375 11.49609375 C-11.59674276 10.28228529 -11.59674276 10.28228529 -8.625 11.24609375 C-6.9375 12.49609375 -6.9375 12.49609375 -5.9375 15.49609375 C-5.90011719 14.7484375 -5.86273438 14.00078125 -5.82421875 13.23046875 C-5.75847656 12.245625 -5.69273438 11.26078125 -5.625 10.24609375 C-5.56699219 9.2715625 -5.50898437 8.29703125 -5.44921875 7.29296875 C-4.78466028 3.66072552 -3.79827954 0.97254335 0 0 Z " fill="#000000" transform="translate(61.9375,83.50390625)"/>
<path d="M0 0 C5.61 0 11.22 0 17 0 C17 3.63 17 7.26 17 11 C18.65 11 20.3 11 22 11 C22.103125 10.29875 22.20625 9.5975 22.3125 8.875 C23.09359003 5.60862353 24.42058743 2.9528148 26 0 C27.65 0 29.3 0 31 0 C32.485 4.455 32.485 4.455 34 9 C34.66 9 35.32 9 36 9 C35.855625 8.443125 35.71125 7.88625 35.5625 7.3125 C34.97230872 4.88615805 34.476571 2.45093655 34 0 C35.65 0 37.3 0 39 0 C39 0.66 39 1.32 39 2 C39.66 2 40.32 2 41 2 C41 1.34 41 0.68 41 0 C42.65 0 44.3 0 46 0 C46.495 0.99 46.495 0.99 47 2 C47.99 1.34 48.98 0.68 50 0 C54.07490752 -0.33957563 55.53001271 -0.31332486 59 2 C58.67 3.32 58.34 4.64 58 6 C55.69 6 53.38 6 51 6 C51.495 7.98 51.495 7.98 52 10 C55.37823416 10.22267708 55.37823416 10.22267708 59 9 C60.85059719 6.17343946 61.95820214 3.2030431 63 0 C65.3125 0.0625 65.3125 0.0625 68 1 C69.8125 4.5625 69.8125 4.5625 71 8 C71.33 5.36 71.66 2.72 72 0 C73.32 0 74.64 0 76 0 C76 3.63 76 7.26 76 11 C77.65 11 79.3 11 81 11 C81 12.32 81 13.64 81 15 C76.38 15 71.76 15 67 15 C66.505 14.01 66.505 14.01 66 13 C65.34 13 64.68 13 64 13 C63.67 13.66 63.34 14.32 63 15 C62.13375 14.979375 61.2675 14.95875 60.375 14.9375 C57.07372007 14.89851671 57.07372007 14.89851671 54.1875 15.5625 C50.05491693 16.12971728 46.07412889 15.93704964 42 15 C41.34 14.34 40.68 13.68 40 13 C39.67 13.66 39.34 14.32 39 15 C36.36 15 33.72 15 31 15 C30.67 14.01 30.34 13.02 30 12 C28.68 12 27.36 12 26 12 C26 12.99 26 13.98 26 15 C21.49048355 16.09321611 16.27999354 17.13999677 12 15 C12 11.7 12 8.4 12 5 C10.68 5 9.36 5 8 5 C8 8.3 8 11.6 8 15 C6.68 15 5.36 15 4 15 C4 11.7 4 8.4 4 5 C2.68 4.67 1.36 4.34 0 4 C0 2.68 0 1.36 0 0 Z M45 3 C42.69328085 5.71549154 42.69328085 5.71549154 43.375 8.1875 C43.58125 8.785625 43.7875 9.38375 44 10 C44.33 10 44.66 10 45 10 C45.33 7.69 45.66 5.38 46 3 C45.67 3 45.34 3 45 3 Z " fill="#000000" transform="translate(340,217)"/>
<path d="M0 0 C2.0625 0.4375 2.0625 0.4375 4 1 C3.690625 1.928125 3.690625 1.928125 3.375 2.875 C3.25125 3.57625 3.1275 4.2775 3 5 C3.66 5.66 4.32 6.32 5 7 C5.33 6.34 5.66 5.68 6 5 C7.65 5 9.3 5 11 5 C11.33 5.99 11.66 6.98 12 8 C12.66 7.01 13.32 6.02 14 5 C15.93945312 4.61181641 15.93945312 4.61181641 18.28125 4.6015625 C19.54388672 4.59576172 19.54388672 4.59576172 20.83203125 4.58984375 C21.71246094 4.60144531 22.59289062 4.61304688 23.5 4.625 C24.38042969 4.61339844 25.26085937 4.60179687 26.16796875 4.58984375 C27.00972656 4.59371094 27.85148437 4.59757813 28.71875 4.6015625 C29.49154297 4.60494629 30.26433594 4.60833008 31.06054688 4.61181641 C33 5 33 5 35 8 C35.33 7.01 35.66 6.02 36 5 C37.32 5 38.64 5 40 5 C40 9.62 40 14.24 40 19 C35 18 35 18 34 17 C33.34 17.99 32.68 18.98 32 20 C29.25 20.328125 29.25 20.328125 26 20.25 C24.9275 20.23453125 23.855 20.2190625 22.75 20.203125 C20 20 20 20 18 19 C17.375 15.9375 17.375 15.9375 17 13 C16.34 14.98 15.68 16.96 15 19 C12.6875 19.3125 12.6875 19.3125 10 19 C8.1875 16.5 8.1875 16.5 7 14 C6.4740625 15.2065625 6.4740625 15.2065625 5.9375 16.4375 C4 19 4 19 0.5625 20 C-3 20 -3 20 -5.4375 18.5625 C-5.953125 18.046875 -6.46875 17.53125 -7 17 C-7.7115625 18.4540625 -7.7115625 18.4540625 -8.4375 19.9375 C-10 23 -10 23 -11 24 C-12.66617115 24.04063832 -14.33388095 24.042721 -16 24 C-16.33 22.68 -16.66 21.36 -17 20 C-16.01 19.34 -15.02 18.68 -14 18 C-13.41407366 14.88389446 -13.41407366 14.88389446 -13.3125 11.375 C-13.24675781 10.18648437 -13.18101562 8.99796875 -13.11328125 7.7734375 C-13.05720703 6.40058594 -13.05720703 6.40058594 -13 5 C-12.21625 5.165 -11.4325 5.33 -10.625 5.5 C-8.11791961 6.0623707 -8.11791961 6.0623707 -6 6 C-4.29220027 4.37550757 -2.62449243 2.70779973 -1 1 C-0.67 0.67 -0.34 0.34 0 0 Z M-2 10 C-2.99 11.485 -2.99 11.485 -4 13 C-2.02 13.99 -2.02 13.99 0 15 C0.66 13.68 1.32 12.36 2 11 C0.68 10.67 -0.64 10.34 -2 10 Z M22 10 C22 10.33 22 10.66 22 11 C23.65 11 25.3 11 27 11 C26.67 12.32 26.34 13.64 26 15 C26.66 15 27.32 15 28 15 C28 13.35 28 11.7 28 10 C26.02 10 24.04 10 22 10 Z " fill="#000000" transform="translate(285,235)"/>
<path d="M0 0 C1.65 0 3.3 0 5 0 C5 3.63 5 7.26 5 11 C5.66 11 6.32 11 7 11 C7 7.37 7 3.74 7 0 C8.65 0 10.3 0 12 0 C12.33 0.99 12.66 1.98 13 3 C13.515625 2.484375 14.03125 1.96875 14.5625 1.4375 C17.9710271 -0.57265701 20.23106857 0.20272604 24 1 C24.33 2.32 24.66 3.64 25 5 C21.98968256 5.93423645 21.13349732 6.04449911 18 5 C18.33 6.65 18.66 8.3 19 10 C21.883975 10.21790719 21.883975 10.21790719 25 9 C26.77165873 6.1546087 27.91376616 3.16285735 29 0 C31.375 0.1875 31.375 0.1875 34 1 C35.3125 3.5625 35.3125 3.5625 36 6 C36.61875 5.195625 37.2375 4.39125 37.875 3.5625 C40 1 40 1 42 0 C46.05142119 -0.25860135 47.54337669 -0.30441554 51 2 C50.67 3.32 50.34 4.64 50 6 C47.69 6 45.38 6 43 6 C43.495 7.98 43.495 7.98 44 10 C45.98 9.67 47.96 9.34 50 9 C50.495 11.475 50.495 11.475 51 14 C47.8418611 15.89632541 45.9894992 16.14879836 42.375 15.5625 C39.0720104 14.93937628 39.0720104 14.93937628 36 16 C35.01 15.67 34.02 15.34 33 15 C33 14.01 33 13.02 33 12 C29.88214887 12.64644661 29.88214887 12.64644661 29 15 C28.113125 14.979375 27.22625 14.95875 26.3125 14.9375 C23.08751586 14.88058737 23.08751586 14.88058737 20.375 15.625 C17.491681 16.08026089 16.40869117 15.57810801 14 14 C13.34 13.34 12.68 12.68 12 12 C11.01 13.485 11.01 13.485 10 15 C6.75806621 15.9866755 4.9099278 16.44844112 1.8203125 14.92578125 C0 13 0 13 -0.390625 9.86328125 C-0.34421875 8.69152344 -0.2978125 7.51976562 -0.25 6.3125 C-0.21390625 5.13300781 -0.1778125 3.95351562 -0.140625 2.73828125 C-0.09421875 1.83464844 -0.0478125 0.93101562 0 0 Z " fill="#000000" transform="translate(572,217)"/>
<path d="M0 0 C8.36923077 -0.49230769 8.36923077 -0.49230769 11.5625 2 C12.036875 2.66 12.51125 3.32 13 4 C13.33 2.68 13.66 1.36 14 0 C15.32 0 16.64 0 18 0 C19.32 2.97 20.64 5.94 22 9 C22.33 6.03 22.66 3.06 23 0 C29.8359375 -0.1953125 29.8359375 -0.1953125 32 0 C34 2 34 2 34.125 5.625 C34.08375 6.73875 34.0425 7.8525 34 9 C35.46569415 7.53430585 36.14978184 5.79237884 37.0625 3.9375 C37.42472656 3.20402344 37.78695312 2.47054687 38.16015625 1.71484375 C38.43730469 1.14894531 38.71445312 0.58304688 39 0 C40.32 0 41.64 0 43 0 C43.83986084 1.93467942 44.67168027 3.87285129 45.5 5.8125 C45.9640625 6.89144531 46.428125 7.97039062 46.90625 9.08203125 C48 12 48 12 48 15 C46.35 15 44.7 15 43 15 C42.505 14.01 42.505 14.01 42 13 C41.01 12.67 40.02 12.34 39 12 C39 12.99 39 13.98 39 15 C35.56265937 15.08703823 32.12560163 15.14040272 28.6875 15.1875 C27.22280273 15.22520508 27.22280273 15.22520508 25.72851562 15.26367188 C24.32182617 15.27817383 24.32182617 15.27817383 22.88671875 15.29296875 C22.02264404 15.3086792 21.15856934 15.32438965 20.26831055 15.34057617 C17.54981464 14.93240678 16.69636171 14.10407096 15 12 C15 12.99 15 13.98 15 15 C13.35 15 11.7 15 10 15 C10 13.35 10 11.7 10 10 C8.35 10.33 6.7 10.66 5 11 C4.67 12.32 4.34 13.64 4 15 C2.68 15 1.36 15 0 15 C0 10.05 0 5.1 0 0 Z " fill="#000000" transform="translate(471,217)"/>
<path d="M0 0 C1.65 0 3.3 0 5 0 C5.33 0.66 5.66 1.32 6 2 C6.33 1.34 6.66 0.68 7 0 C8.65 0 10.3 0 12 0 C12.33 2.64 12.66 5.28 13 8 C12.95875 7.05125 12.9175 6.1025 12.875 5.125 C13 2 13 2 15 0 C17.43017578 -0.22705078 17.43017578 -0.22705078 20.4453125 -0.1953125 C22.05986328 -0.18564453 22.05986328 -0.18564453 23.70703125 -0.17578125 C24.83496094 -0.15902344 25.96289062 -0.14226562 27.125 -0.125 C28.82849609 -0.11146484 28.82849609 -0.11146484 30.56640625 -0.09765625 C33.37769337 -0.07403199 36.18887262 -0.0381601 39 0 C39 4.95 39 9.9 39 15 C37.35 15 35.7 15 34 15 C34 11.7 34 8.4 34 5 C32.68 5 31.36 5 30 5 C30 8.3 30 11.6 30 15 C28.68 15 27.36 15 26 15 C26 11.7 26 8.4 26 5 C24.02 5.99 24.02 5.99 22 7 C22.33 7.33 22.66 7.66 23 8 C23.29431219 10.7959658 23.33772308 12.43712819 21.875 14.875 C19.0729424 16.55623456 17.08701022 15.72249175 14 15 C13.34 15 12.68 15 12 15 C8 15 4 15 0 15 C0 10.05 0 5.1 0 0 Z " fill="#000000" transform="translate(249,217)"/>
<path d="M0 0 C3.3 0 6.6 0 10 0 C10.33 0.66 10.66 1.32 11 2 C11.99 1.34 12.98 0.68 14 0 C19.30875576 -0.55299539 19.30875576 -0.55299539 21.875 1.5 C22.24625 1.995 22.6175 2.49 23 3 C22.67 3.99 22.34 4.98 22 6 C20.02 6 18.04 6 16 6 C16.33 7.32 16.66 8.64 17 10 C17.61875 9.814375 18.2375 9.62875 18.875 9.4375 C21 9 21 9 23 10 C23.99 6.7 24.98 3.4 26 0 C27.98 0 29.96 0 32 0 C32.67220351 1.93558599 33.33758077 3.87354372 34 5.8125 C34.37125 6.89144531 34.7425 7.97039062 35.125 9.08203125 C36 12 36 12 36 15 C33.525 14.505 33.525 14.505 31 14 C31 13.34 31 12.68 31 12 C29.68 12 28.36 12 27 12 C27 12.99 27 13.98 27 15 C25.08591243 15.24979445 23.16848389 15.47408014 21.25 15.6875 C20.18265625 15.81511719 19.1153125 15.94273437 18.015625 16.07421875 C14.59442134 15.99001814 13.44579177 15.30925485 11 13 C10.01 14.485 10.01 14.485 9 16 C6.03 15.67 3.06 15.34 0 15 C0 10.05 0 5.1 0 0 Z M5 5 C5 5.33 5 5.66 5 6 C6.65 6 8.3 6 10 6 C10 5.67 10 5.34 10 5 C8.35 5 6.7 5 5 5 Z M9 9 C7.02 9.99 7.02 9.99 5 11 C6.65 11 8.3 11 10 11 C9.67 10.34 9.34 9.68 9 9 Z " fill="#000000" transform="translate(431,217)"/>
<path d="M0 0 C1.65 0 3.3 0 5 0 C6.32 2.97 7.64 5.94 9 9 C9.33 6.03 9.66 3.06 10 0 C16.4 -0.36923077 16.4 -0.36923077 19.4375 1.5 C19.953125 1.995 20.46875 2.49 21 3 C21.33 2.01 21.66 1.02 22 0 C23.65 0 25.3 0 27 0 C27.495 4.455 27.495 4.455 28 9 C28.33 6.03 28.66 3.06 29 0 C30.65 0 32.3 0 34 0 C35.41537287 7.82718249 35.41537287 7.82718249 33.9375 12 C32 14 32 14 29.0625 15.0625 C26 15 26 15 23.625 13.0625 C23.08875 12.381875 22.5525 11.70125 22 11 C21.4740625 11.7115625 21.4740625 11.7115625 20.9375 12.4375 C18.07088544 14.74928594 15.63596361 14.75760243 12 15 C9.65739357 14.7397104 7.3182429 14.42579972 5 14 C5 13.01 5 12.02 5 11 C3.68 11 2.36 11 1 11 C1 11.99 1 12.98 1 14 C-0.98 14 -2.96 14 -5 14 C-3.45730076 9.27934033 -1.92205381 4.58335908 0 0 Z M15 5 C15 6.65 15 8.3 15 10 C15.66 9.67 16.32 9.34 17 9 C16.67 7.68 16.34 6.36 16 5 C15.67 5 15.34 5 15 5 Z " fill="#000000" transform="translate(470,240)"/>
<path d="M0 0 C1.32 0 2.64 0 4 0 C3.67 1.65 3.34 3.3 3 5 C4.32 5.66 5.64 6.32 7 7 C7.33 6.01 7.66 5.02 8 4 C9.65 4 11.3 4 13 4 C13.33 4.66 13.66 5.32 14 6 C14.33 5.34 14.66 4.68 15 4 C16.65 4 18.3 4 20 4 C20 8.95 20 13.9 20 19 C19.01 19.33 18.02 19.66 17 20 C16.01 19.34 15.02 18.68 14 18 C13.67 18.33 13.34 18.66 13 19 C11.33382885 19.04063832 9.66611905 19.042721 8 19 C7.67 18.01 7.34 17.02 7 16 C6.62875 16.474375 6.2575 16.94875 5.875 17.4375 C3.27675506 19.60270411 1.35133916 19.86321065 -2 20 C-4.375 18.5625 -4.375 18.5625 -6 17 C-6.33 17.66 -6.66 18.32 -7 19 C-8.32 19 -9.64 19 -11 19 C-11 14.05 -11 9.1 -11 4 C-9.68 4 -8.36 4 -7 4 C-6.67 4.66 -6.34 5.32 -6 6 C-5.195625 5.195625 -4.39125 4.39125 -3.5625 3.5625 C-2.375 2.375 -1.1875 1.1875 0 0 Z M-1 9 C-1.99 10.485 -1.99 10.485 -3 12 C-2.01 12.99 -1.02 13.98 0 15 C0.99 14.34 1.98 13.68 3 13 C2.67 11.68 2.34 10.36 2 9 C1.01 9 0.02 9 -1 9 Z " fill="#000000" transform="translate(635,213)"/>
<path d="M0 0 C1.32 0 2.64 0 4 0 C4.33 2.97 4.66 5.94 5 9 C5.33 6.03 5.66 3.06 6 0 C8.62506802 -0.02690844 11.24986173 -0.04679404 13.875 -0.0625 C14.62136719 -0.07087891 15.36773437 -0.07925781 16.13671875 -0.08789062 C21.7734375 -0.11328125 21.7734375 -0.11328125 24 1 C24.66 0.67 25.32 0.34 26 0 C29.50337981 -0.38080215 31.36278626 -0.40245078 34.375 1.5 C36.80664499 5.24099229 36.49174842 7.57426418 36 12 C34.38825868 14.77577672 33.16994047 14.95299519 30.0625 15.8125 C26.87653809 16.00755889 25.57600582 15.81274484 23 14 C21.5216774 11.04335481 21.93967217 8.25770263 22 5 C21.01 5 20.02 5 19 5 C19 8.3 19 11.6 19 15 C17.35 15 15.7 15 14 15 C14 11.7 14 8.4 14 5 C13.01 5 12.02 5 11 5 C11.103125 5.886875 11.20625 6.77375 11.3125 7.6875 C11 11 11 11 8.8125 13.9375 C6 16 6 16 3.25 15.875 C1 15 1 15 0 14 C-0.07271741 11.64686445 -0.08370868 9.29166332 -0.0625 6.9375 C-0.05347656 5.64714844 -0.04445313 4.35679687 -0.03515625 3.02734375 C-0.02355469 2.02832031 -0.01195312 1.02929688 0 0 Z M26 6 C26.33 7.32 26.66 8.64 27 10 C28.32 10 29.64 10 31 10 C31.33 8.68 31.66 7.36 32 6 C28.95086772 4.98888907 28.95086772 4.98888907 26 6 Z " fill="#000000" transform="translate(301,217)"/>
<path d="M0 0 C4 1 4 1 5 2 C5.33 1.34 5.66 0.68 6 0 C7.65 0 9.3 0 11 0 C11.33 2.64 11.66 5.28 12 8 C12.99 5.36 13.98 2.72 15 0 C16.98 0 18.96 0 21 0 C21.66 1.98 22.32 3.96 23 6 C23.12375 5.195625 23.2475 4.39125 23.375 3.5625 C23.684375 2.2940625 23.684375 2.2940625 24 1 C26.76250036 -0.38125018 28.94731099 -0.19079306 32 0 C34 2 34 2 34.0625 4.3125 C34.041875 5.199375 34.02125 6.08625 34 7 C34.29749946 8.67343448 34.62127066 10.34305915 35 12 C32.63310671 14.19219402 31.48272731 14.9871902 28.203125 15.07421875 C26.74132812 14.88279297 26.74132812 14.88279297 25.25 14.6875 C24.26515625 14.56761719 23.2803125 14.44773438 22.265625 14.32421875 C21.51796875 14.21722656 20.7703125 14.11023438 20 14 C20 13.01 20 12.02 20 11 C18.68 11 17.36 11 16 11 C15.67 11.99 15.34 12.98 15 14 C11.6875 14.6875 11.6875 14.6875 8 15 C6.0625 13.5625 6.0625 13.5625 5 12 C4.01 12.99 3.02 13.98 2 15 C1.34 14.67 0.68 14.34 0 14 C0 9.38 0 4.76 0 0 Z " fill="#000000" transform="translate(428,240)"/>
<path d="M0 0 C3.63 0 7.26 0 11 0 C11.33 0.99 11.66 1.98 12 3 C12.33 2.01 12.66 1.02 13 0 C14.98 0 16.96 0 19 0 C19.99 2.31 20.98 4.62 22 7 C21.938125 6.21625 21.87625 5.4325 21.8125 4.625 C21.9053125 3.325625 21.9053125 3.325625 22 2 C25.45029042 -0.30019361 26.94554358 -0.43132515 31 0 C33.4294516 3.6441774 33.16179575 5.71241272 33 10 C33.61875 9.79375 34.2375 9.5875 34.875 9.375 C35.926875 9.189375 35.926875 9.189375 37 9 C37.66 9.66 38.32 10.32 39 11 C38.625 13.125 38.625 13.125 38 15 C37.13375 14.814375 36.2675 14.62875 35.375 14.4375 C31.93526779 13.99160879 29.38577044 14.39808526 26 15 C25.01 14.67 24.02 14.34 23 14 C22.01 14.33 21.02 14.66 20 15 C19.34 14.67 18.68 14.34 18 14 C18 13.01 18 12.02 18 11 C14.88214887 11.64644661 14.88214887 11.64644661 14 14 C6.58823529 15.29411765 6.58823529 15.29411765 4 14 C4 11.03 4 8.06 4 5 C2.68 5 1.36 5 0 5 C0 3.35 0 1.7 0 0 Z M9 5 C9 6.65 9 8.3 9 10 C9.66 9.34 10.32 8.68 11 8 C11 7.01 11 6.02 11 5 C10.34 5 9.68 5 9 5 Z " fill="#000000" transform="translate(513,240)"/>
<path d="M0 0 C3.66666667 0 7.33333333 0 11 0 C11.6703125 -0.01047363 12.340625 -0.02094727 13.03125 -0.03173828 C15.6874547 -0.07324148 18.34359896 -0.09917388 21 -0.125 C22.3921875 -0.15013672 22.3921875 -0.15013672 23.8125 -0.17578125 C24.699375 -0.18222656 25.58625 -0.18867188 26.5 -0.1953125 C27.3146875 -0.20578613 28.129375 -0.21625977 28.96875 -0.22705078 C31 0 31 0 33 2 C33.125 5.5 33.125 5.5 33 9 C33 9.66 33 10.32 33 11 C33 11.99 33 12.98 33 14 C29.7807732 15.0730756 29.09793558 14.79946725 26 14 C25.01 14.495 25.01 14.495 24 15 C23.34 14.67 22.68 14.34 22 14 C21.5859375 11.93359375 21.5859375 11.93359375 21.375 9.4375 C21.30023438 8.61121094 21.22546875 7.78492188 21.1484375 6.93359375 C21.09945313 6.29550781 21.05046875 5.65742188 21 5 C20.02408417 8.38317487 20.14143345 10.5657338 21 14 C18.26094655 15.36952673 16.02912668 15.12621361 13 15 C12.34 14.67 11.68 14.34 11 14 C11 12.35 11 10.7 11 9 C8.69 9.33 6.38 9.66 4 10 C3.67 11.65 3.34 13.3 3 15 C2.01 14.67 1.02 14.34 0 14 C0 9.38 0 4.76 0 0 Z M4 5 C4 5.66 4 6.32 4 7 C4.66 7 5.32 7 6 7 C6 6.34 6 5.68 6 5 C5.34 5 4.68 5 4 5 Z M26 5 C26 5.66 26 6.32 26 7 C26.66 7 27.32 7 28 7 C28 6.34 28 5.68 28 5 C27.34 5 26.68 5 26 5 Z " fill="#000000" transform="translate(368,240)"/>
<path d="M0 0 C8.625 -0.25 8.625 -0.25 12 2 C12.66 1.34 13.32 0.68 14 0 C16.3828125 -0.1953125 16.3828125 -0.1953125 19.125 -0.125 C20.03507812 -0.10695312 20.94515625 -0.08890625 21.8828125 -0.0703125 C22.58148438 -0.04710937 23.28015625 -0.02390625 24 0 C23.814375 0.9075 23.62875 1.815 23.4375 2.75 C23.02505465 5.81387973 23.25928436 7.1297269 24 10 C23.5625 12.75 23.5625 12.75 23 15 C21.741875 15.04125 20.48375 15.0825 19.1875 15.125 C18.47980469 15.14820313 17.77210938 15.17140625 17.04296875 15.1953125 C15 15 15 15 12 13 C11.071875 13.309375 10.14375 13.61875 9.1875 13.9375 C6 15 6 15 0 14 C0 9.38 0 4.76 0 0 Z M5 5 C5 6.65 5 8.3 5 10 C6.32 9.34 7.64 8.68 9 8 C8.34 7.01 7.68 6.02 7 5 C6.34 5 5.68 5 5 5 Z " fill="#000000" transform="translate(243,240)"/>
<path d="M0 0 C3.08427046 -0.10800947 6.16475747 -0.18731002 9.25 -0.25 C10.12269531 -0.28351563 10.99539063 -0.31703125 11.89453125 -0.3515625 C18.34050332 -0.44997429 18.34050332 -0.44997429 21.58203125 1.76171875 C23.92184883 5.4551498 23.48012049 7.67891556 23 12 C21.36642136 14.29969809 20.38059402 14.91265055 17.6171875 15.546875 C11.56081886 15.9954949 6.01209423 15.8870303 0 15 C0 10.05 0 5.1 0 0 Z M5 5 C5.639375 5.12375 6.27875 5.2475 6.9375 5.375 C7.9584375 5.684375 7.9584375 5.684375 9 6 C9.33 6.66 9.66 7.32 10 8 C10 7.01 10 6.02 10 5 C8.35 5 6.7 5 5 5 Z M15 5 C15 6.98 15 8.96 15 11 C16.32 10.34 17.64 9.68 19 9 C18.67 7.68 18.34 6.36 18 5 C17.01 5 16.02 5 15 5 Z M9 9 C7.02 9.99 7.02 9.99 5 11 C6.65 11 8.3 11 10 11 C9.67 10.34 9.34 9.68 9 9 Z " fill="#000000" transform="translate(548,217)"/>
<path d="M0 0 C3.0625 0.25 3.0625 0.25 6.0625 2.25 C7.0525 1.59 8.0425 0.93 9.0625 0.25 C13.11730401 -0.36703539 14.60619977 -0.07038101 18 2.3125 C20.0625 5.25 20.0625 5.25 20.1875 8.875 C19.0625 12.25 19.0625 12.25 16.875 14.25 C13.46027238 15.46412538 11.554895 15.06736904 8.0625 14.25 C4.19387346 14.08830958 4.19387346 14.08830958 1.0625 15 C-1.9375 15.25 -1.9375 15.25 -4.375 13.875 C-6.43969564 10.40631132 -6.02401824 8.17785343 -5.4921875 4.2734375 C-4.55965448 0.8716621 -3.45987946 0.29445783 0 0 Z M10.0625 5.25 C9.7325 6.24 9.4025 7.23 9.0625 8.25 C10.5475 9.24 10.5475 9.24 12.0625 10.25 C13.0525 9.26 14.0425 8.27 15.0625 7.25 C14.4025 6.59 13.7425 5.93 13.0625 5.25 C12.0725 5.25 11.0825 5.25 10.0625 5.25 Z " fill="#000000" transform="translate(406.9375,239.75)"/>
<path d="M0 0 C13.375 0 13.375 0 20 1 C20.98386923 5.05846056 21.3148325 8.82846941 21 13 C18 15 18 15 14.9375 14.6875 C12 14 12 14 10 13 C10 13.66 10 14.32 10 15 C2.25 15.125 2.25 15.125 0 14 C0 9.38 0 4.76 0 0 Z M5 5 C5 5.33 5 5.66 5 6 C6.65 6 8.3 6 10 6 C10.33 6.99 10.66 7.98 11 9 C11 7.68 11 6.36 11 5 C9.02 5 7.04 5 5 5 Z M6 9 C10 10 10 10 10 10 Z " fill="#000000" transform="translate(326,240)"/>
<path d="M0 0 C1.32 0 2.64 0 4 0 C4 3.63 4 7.26 4 11 C5.65 10.67 7.3 10.34 9 10 C9.99 6.7 10.98 3.4 12 0 C13.98 0 15.96 0 18 0 C18.83739781 2.1234016 19.66980283 4.2487728 20.5 6.375 C20.9640625 7.55835938 21.428125 8.74171875 21.90625 9.9609375 C23 13 23 13 23 15 C21.35 15 19.7 15 18 15 C17.67 14.01 17.34 13.02 17 12 C15.68 12 14.36 12 13 12 C13 12.99 13 13.98 13 15 C11.23086176 15.22226864 9.45955629 15.42733873 7.6875 15.625 C6.20830078 15.79902344 6.20830078 15.79902344 4.69921875 15.9765625 C2 16 2 16 -1 14 C-1.328125 10.99609375 -1.328125 10.99609375 -1.25 7.4375 C-1.22679687 5.67212891 -1.22679687 5.67212891 -1.203125 3.87109375 C-1 1 -1 1 0 0 Z " fill="#000000" transform="translate(522,217)"/>
<path d="M0 0 C3.63 0 7.26 0 11 0 C11 1.65 11 3.3 11 5 C10.01 5 9.02 5 8 5 C8 8.3 8 11.6 8 15 C6.35 15 4.7 15 3 15 C2 14 2 14 1.90234375 11.93359375 C1.91974609 10.69802734 1.91974609 10.69802734 1.9375 9.4375 C1.94652344 8.61121094 1.95554687 7.78492188 1.96484375 6.93359375 C1.97644531 6.29550781 1.98804688 5.65742188 2 5 C1.34 5 0.68 5 0 5 C0 3.35 0 1.7 0 0 Z " fill="#000000" transform="translate(289,217)"/>
<path d="M0 0 C2.375 -0.1875 2.375 -0.1875 5 0 C5.66 0.99 6.32 1.98 7 3 C7.66 2.01 8.32 1.02 9 0 C11.625 -0.1875 11.625 -0.1875 14 0 C13.25 4.75 13.25 4.75 11 7 C10.59952556 9.32275177 10.2602896 11.65739357 10 14 C8.68 14.33 7.36 14.66 6 15 C5.566875 13.7625 5.13375 12.525 4.6875 11.25 C3.50158931 8.04804113 2.10026213 5.70033702 0 3 C0 2.01 0 1.02 0 0 Z " fill="#000000" transform="translate(350,240)"/>
<path d="M0 0 C3.63 0 7.26 0 11 0 C11 1.65 11 3.3 11 5 C10.01 5 9.02 5 8 5 C8 8.3 8 11.6 8 15 C6.35 15 4.7 15 3 15 C3 11.7 3 8.4 3 5 C1.68 4.67 0.36 4.34 -1 4 C-0.67 2.68 -0.34 1.36 0 0 Z " fill="#000000" transform="translate(419,217)"/>
<path d="M0 0 C1.32 0 2.64 0 4 0 C4 3.3 4 6.6 4 10 C5.65 10 7.3 10 9 10 C8.67 11.65 8.34 13.3 8 15 C5.66705225 15.04241723 3.33297433 15.04092937 1 15 C0 14 0 14 -0.09765625 10.83984375 C-0.08025391 8.90818359 -0.08025391 8.90818359 -0.0625 6.9375 C-0.05347656 5.64714844 -0.04445313 4.35679687 -0.03515625 3.02734375 C-0.02355469 2.02832031 -0.01195312 1.02929688 0 0 Z " fill="#000000" transform="translate(506,240)"/>
<path d="M0 0 C1.65 0 3.3 0 5 0 C5 4.95 5 9.9 5 15 C3.35 15 1.7 15 0 15 C0 10.05 0 5.1 0 0 Z " fill="#000000" transform="translate(243,217)"/>
</svg>
