<?xml version="1.0" encoding="UTF-8"?>
<svg version="1.1" xmlns="http://www.w3.org/2000/svg" width="950" height="260">
<path d="M0 0 C3.51284626 1.28656376 5.73173358 3.49932978 8.328125 6.1328125 C9.12734375 6.93847656 9.9265625 7.74414062 10.75 8.57421875 C11.575 9.41597656 12.4 10.25773437 13.25 11.125 C14.09046875 11.97449219 14.9309375 12.82398438 15.796875 13.69921875 C17.86915683 15.79504923 19.93662393 17.89540713 22 20 C23.1055189 19.06409496 24.20935453 18.12620142 25.3125 17.1875 C25.92738281 16.66542969 26.54226562 16.14335938 27.17578125 15.60546875 C29.0143273 14.03698755 29.0143273 14.03698755 30.60546875 12.30078125 C32 11 32 11 34 11 C34.24492188 10.41734375 34.48984375 9.8346875 34.7421875 9.234375 C36.20435874 6.63697764 37.84740414 5.16024169 40.125 3.25 C40.84945312 2.63640625 41.57390625 2.0228125 42.3203125 1.390625 C42.87460938 0.93171875 43.42890625 0.4728125 44 0 C54.77402288 6.76508414 63.1993364 16.92773391 66.6484375 29.33203125 C67.13104937 32.99451913 67.10531707 36.62693814 67.0625 40.3125 C67.05798828 41.05306641 67.05347656 41.79363281 67.04882812 42.55664062 C67.03712175 44.37112899 67.01918898 46.18557534 67 48 C67.87140625 48.02578125 68.7428125 48.0515625 69.640625 48.078125 C86.72341039 48.89159097 100.63634331 54.72725114 112.453125 67.27734375 C112.96359375 67.84582031 113.4740625 68.41429688 114 69 C112.51346494 72.46629835 110.54277649 74.69022036 107.8671875 77.328125 C107.06152344 78.12734375 106.25585938 78.9265625 105.42578125 79.75 C104.58402344 80.575 103.74226562 81.4 102.875 82.25 C101.60076172 83.51070312 101.60076172 83.51070312 100.30078125 84.796875 C98.20495077 86.86915683 96.10459287 88.93662393 94 91 C98.06838173 95.8911484 102.34438078 100.47350753 106.875 104.9375 C107.46796875 105.52595703 108.0609375 106.11441406 108.671875 106.72070312 C110.11226466 108.14947674 111.5557967 109.57508132 113 111 C109.38221268 121.68465685 98.43468783 128.18071795 88.86328125 133.09765625 C81.6503344 136.05152972 73.64304452 135.25320516 66 135 C65.814375 136.8871875 65.814375 136.8871875 65.625 138.8125 C63.77828217 155.00068228 59.05426495 170.17870142 46 181 C44.15429688 181.86132812 44.15429688 181.86132812 42 182 C39.80175781 180.36938477 39.80175781 180.36938477 37.453125 177.94140625 C36.60878906 177.08095703 35.76445312 176.22050781 34.89453125 175.33398438 C34.02183594 174.41939453 33.14914063 173.50480469 32.25 172.5625 C31.36183594 171.65177734 30.47367187 170.74105469 29.55859375 169.80273438 C27.36083417 167.54589523 25.17553163 165.27824049 23 163 C19.7279406 164.42111983 17.68034504 166.13535987 15.25 168.73046875 C14.5590625 169.45041016 13.868125 170.17035156 13.15625 170.91210938 C11.71288844 172.43522189 10.27541498 173.96393485 8.84375 175.49804688 C8.1528125 176.21412109 7.461875 176.93019531 6.75 177.66796875 C6.12609375 178.33078857 5.5021875 178.9936084 4.859375 179.67651367 C3 181 3 181 0.88183594 180.78588867 C-8.42841356 176.89776035 -15.62556468 165.81868799 -19.5 156.9375 C-22.05083533 149.26261825 -21.31589055 140.97623632 -21 133 C-21.78761719 133.04640625 -22.57523438 133.0928125 -23.38671875 133.140625 C-39.91831998 133.6884177 -53.70977399 127.57230327 -65.6796875 116.4375 C-66.80934552 115.31422423 -67.90926327 114.16110684 -69 113 C-67.51346494 109.53370165 -65.54277649 107.30977964 -62.8671875 104.671875 C-62.06152344 103.87265625 -61.25585938 103.0734375 -60.42578125 102.25 C-59.58402344 101.425 -58.74226563 100.6 -57.875 99.75 C-57.02550781 98.90953125 -56.17601562 98.0690625 -55.30078125 97.203125 C-53.20495077 95.13084317 -51.10459287 93.06337607 -49 91 C-49.33 90.01 -49.66 89.02 -50 88 C-50.66 88 -51.32 88 -52 88 C-52 87.34 -52 86.68 -52 86 C-52.66 86 -53.32 86 -54 86 C-56.48817699 83.76064071 -58.58950855 81.84512945 -60.0625 78.8125 C-61.28932157 76.44064497 -62.60940779 76.08663282 -65 75 C-66.8125 73.625 -66.8125 73.625 -68 72 C-66.99256222 64.23297973 -58.39045464 58.2314367 -52.62109375 53.76171875 C-43.84804393 47.86507871 -34.38449432 46.41737161 -24 47 C-22.65782611 47.29573323 -21.31986964 47.61681204 -20 48 C-20.04640625 47.06800781 -20.0928125 46.13601562 -20.140625 45.17578125 C-20.6244999 28.08462861 -15.20499073 15.36364288 -3.734375 2.71484375 C-2 1 -2 1 0 0 Z M0 8 C-10.0922218 18.57280379 -14.63522557 31.05901393 -14.53515625 45.59765625 C-14.30528437 48.96161035 -14.30528437 48.96161035 -12.43359375 50.87109375 C-10.5329584 52.08223849 -10.5329584 52.08223849 -8.5703125 53.0234375 C-7.79300781 53.50683594 -7.79300781 53.50683594 -7 54 C-6.375 57.1875 -6.375 57.1875 -7 60 C-10 62 -10 62 -12.4375 62.0625 C-15.40108334 60.83369715 -15.60566661 60.24915125 -17 57.5 C-18.40835754 54.62471246 -18.40835754 54.62471246 -21.125 53.0625 C-22.07375 53.041875 -23.0225 53.02125 -24 53 C-24.72316406 52.95230469 -25.44632813 52.90460938 -26.19140625 52.85546875 C-40.3131776 52.25877419 -49.85260516 58.93211525 -60 68 C-59.41889329 71.42754467 -58.31446376 73.04538661 -55.83984375 75.453125 C-55.21142578 76.071875 -54.58300781 76.690625 -53.93554688 77.328125 C-52.94651367 78.27945313 -52.94651367 78.27945313 -51.9375 79.25 C-50.94266602 80.22453125 -50.94266602 80.22453125 -49.92773438 81.21875 C-48.29170683 82.8194676 -46.64909088 84.41276193 -45 86 C-42.16699276 84.63610781 -40.08979571 83.29545962 -37.8125 81.125 C-28.9281531 73.29375456 -18.43202069 72.28999908 -7.06542969 72.79443359 C-2.90085456 73.20892204 0.87178729 74.60636886 4.7421875 76.125 C6.90723697 77.12045204 6.90723697 77.12045204 9 77 C8.79503906 76.36835937 8.59007813 75.73671875 8.37890625 75.0859375 C4.50218826 62.21300792 3.2911738 49.52287756 9.3984375 37.171875 C11.8659367 32.88819618 14.40684805 29.41465844 18 26 C16.55922954 22.63820226 14.75249979 20.40843732 12 18 C11.34 18 10.68 18 10 18 C9.505 16.515 9.505 16.515 9 15 C8.34 15 7.68 15 7 15 C7 14.34 7 13.68 7 13 C5.44144019 11.64287834 5.44144019 11.64287834 3.5 10.375 C2.52546875 9.70597656 2.52546875 9.70597656 1.53125 9.0234375 C1.0259375 8.68570312 0.520625 8.34796875 0 8 Z M44 8 C38.72 13.28 33.44 18.56 28 24 C29.67922919 28.19807296 30.86514091 30.02125601 33.6953125 33.26171875 C40.12015545 41.821764 40.5006806 51.70551837 40 62 C39.25561651 67.17998821 37.76690393 72.07791048 36 77 C36.72703125 76.79503906 37.4540625 76.59007813 38.203125 76.37890625 C53.42442453 72.30037856 65.08777877 71.9351783 79.21484375 79.3359375 C82.91102521 81.5443152 85.88957369 84.0309567 89 87 C95.44915319 81.63966488 101.32948564 76.00577154 106 69 C92.98560166 58.05932448 80.93060174 54.01054925 64 55 C63.566875 55.96808594 63.13375 56.93617187 62.6875 57.93359375 C61 61 61 61 58 62.0625 C55 62 55 62 53.0625 60.875 C52 59 52 59 52.0625 56.5 C53.18862791 53.49699224 54.26516313 52.60872757 57 51 C58.485 50.505 58.485 50.505 60 50 C62.40677942 39.23797821 61.46837736 29.17388804 55.57421875 19.7109375 C52.46884232 15.42599948 48.80583245 10.40291622 44 8 Z M22 30 C14.359896 37.83972667 10.64380494 44.01068306 9.9453125 55.01953125 C10.14141252 65.7069821 14.13934781 75.19570206 20 84 C20.99 84.66 21.98 85.32 23 86 C31.9366128 75.55859673 35.9742457 63.65782183 35 50 C33.76574842 42.40199256 30.45494705 36.44254945 25 31 C24.01 30.67 23.02 30.34 22 30 Z M-37 87 C-38.54451195 89.67147736 -38.54451195 89.67147736 -39 92 C-31.0726659 99.88304732 -23.98056111 103.3524198 -12.6875 103.5625 C-0.54509204 103.44491093 8.99716281 99.07231138 18 91 C12.13392891 83.87691368 2.15301551 79.0639114 -7 78 C-18.34379522 77.13104633 -28.67202356 78.67202356 -37 87 Z M27 90 C35.13771942 98.90063061 45.71881843 103.58594092 57.75 104.1875 C66.51669556 104.02271249 74.37073517 101.77533387 80.609375 95.33984375 C81.79145333 93.93529562 82.9040234 92.47271855 84 91 C78.04243945 84.37221389 71.55405623 79.36508344 62.375 78.76171875 C48.08446351 78.39550528 38.84919636 81.84078548 27 90 Z M-48.57421875 99.17578125 C-49.57485352 100.17061523 -49.57485352 100.17061523 -50.59570312 101.18554688 C-51.28599609 101.88744141 -51.97628906 102.58933594 -52.6875 103.3125 C-53.38939453 104.00279297 -54.09128906 104.69308594 -54.81445312 105.40429688 C-55.80928711 106.40493164 -55.80928711 106.40493164 -56.82421875 107.42578125 C-57.43354248 108.03848877 -58.04286621 108.65119629 -58.6706543 109.2824707 C-60.30603558 111.03342118 -60.30603558 111.03342118 -60 114 C-50.66909873 122.71159366 -38.26149523 127.18001397 -25.6875 127.0625 C-24.43324219 127.05347656 -23.17898437 127.04445313 -21.88671875 127.03515625 C-20.93410156 127.02355469 -19.98148438 127.01195312 -19 127 C-17.68 124.69 -16.36 122.38 -15 120 C-12.125 119.875 -12.125 119.875 -9 120 C-7 122 -7 122 -6.625 124.48828125 C-6.74875 125.31714844 -6.8725 126.14601563 -7 127 C-8.75 128.16796875 -8.75 128.16796875 -11 129.1875 C-13.40498172 130.81640606 -14.76565859 132.00430708 -15.44335938 134.88378906 C-16.34936798 143.55282007 -15.98416576 152.60809878 -11 160 C-10.52949219 160.70382813 -10.05898437 161.40765625 -9.57421875 162.1328125 C-6.72012421 166.13001985 -3.57233977 169.63779786 0 173 C2.93230193 171.67879172 4.98664899 170.25361803 7.234375 167.9609375 C7.80800781 167.38085938 8.38164063 166.80078125 8.97265625 166.203125 C9.55917969 165.59984375 10.14570312 164.9965625 10.75 164.375 C11.35199219 163.76398438 11.95398438 163.15296875 12.57421875 162.5234375 C14.05405305 161.02011376 15.52764676 159.51065144 17 158 C15.57232226 154.83922093 13.7985997 152.45254029 11.5625 149.8125 C5.19956882 141.70340059 3.26020273 132.12731516 4.3203125 121.9140625 C5.22914585 116.18696981 6.57060789 110.61503822 8 105 C6.865625 105.28875 5.73125 105.5775 4.5625 105.875 C3.0417863 106.25048486 1.52094608 106.62545754 0 107 C-0.74378906 107.19078125 -1.48757812 107.3815625 -2.25390625 107.578125 C-12.22313425 110.0054153 -22.47198647 109.63745182 -31.62890625 104.53515625 C-33.12960618 103.52397623 -34.61088545 102.48280685 -36.0625 101.40234375 C-37.97021555 100.0215577 -39.86960356 98.99386798 -42 98 C-42 97.34 -42 96.68 -42 96 C-45.67480397 96 -46.04504334 96.66057367 -48.57421875 99.17578125 Z M21 96 C12.33727169 106.39125415 9.06142191 117.78313916 9.62109375 131.03515625 C10.49108224 140.13864402 14.76483606 145.5721765 21 152 C26.61731066 149.51285381 30.32669745 144.94368513 32.8125 139.375 C36.35786085 129.29871126 35.95327095 118.69351667 31.63671875 108.91015625 C28.41727822 102.07248266 28.41727822 102.07248266 24 96 C23.01 96 22.02 96 21 96 Z M84.0625 99.75 C75.97512359 107.03766774 66.73911583 109.30278495 56.05078125 109.23046875 C51.78947592 108.90855196 47.83359073 107.89966749 43.7265625 106.75390625 C41.16330144 106.04515355 38.61293278 105.48933105 36 105 C36.20496094 105.58007812 36.40992188 106.16015625 36.62109375 106.7578125 C41.1104268 119.77473033 41.59269092 132.14026316 36 145 C34.69011716 146.68515949 33.36104249 148.35588355 32 150 C32 150.66 32 151.32 32 152 C31.34 152 30.68 152 30 152 C28.36323743 153.9600281 28.36323743 153.9600281 27 156 C28.3510265 159.01015294 29.86335687 161.11967466 32.1875 163.453125 C32.80367188 164.071875 33.41984375 164.690625 34.0546875 165.328125 C35.01761719 166.27945313 35.01761719 166.27945313 36 167.25 C36.64195312 167.8996875 37.28390625 168.549375 37.9453125 169.21875 C38.56148437 169.83234375 39.17765625 170.4459375 39.8125 171.078125 C40.37582031 171.63918945 40.93914062 172.20025391 41.51953125 172.77832031 C42.93719109 174.21215792 42.93719109 174.21215792 45 174 C46.56859634 172.09527588 47.98142041 170.21555486 49.375 168.1875 C49.77912109 167.60162109 50.18324219 167.01574219 50.59960938 166.41210938 C57.08557191 156.68842161 60.81580203 144.74440764 59 133 C56.29868896 130.25264382 56.29868896 130.25264382 53 129 C52.34 128.34 51.68 127.68 51 127 C51.32971479 123.70285207 51.6226839 122.3773161 54 120 C56.3125 119.9375 56.3125 119.9375 59 121 C60.4368631 122.72339298 61.62005187 124.49189702 62.7890625 126.40625 C64.00237373 128.31416029 64.00237373 128.31416029 67 129 C80.63742994 130.08177273 88.74767335 126.98981339 99.65234375 119.09765625 C102.08708636 116.92218739 103.48549223 114.8740659 105 112 C102.3581833 109.32932797 99.7108958 106.66414667 97.0625 104 C95.93038086 102.8553125 95.93038086 102.8553125 94.77539062 101.6875 C94.05673828 100.965625 93.33808594 100.24375 92.59765625 99.5 C91.93258057 98.8296875 91.26750488 98.159375 90.58227539 97.46875 C87.56797159 94.67071703 86.65424498 97.25390818 84.0625 99.75 Z " fill="#000000" transform="translate(93,23)"/>
<path d="M0 0 C20.13 0 40.26 0 61 0 C61 7.59 61 15.18 61 23 C49.12 23 37.24 23 25 23 C25 27.29 25 31.58 25 36 C35.89 36 46.78 36 58 36 C58 43.26 58 50.52 58 58 C47.11 58 36.22 58 25 58 C25 63.61 25 69.22 25 75 C26.485 74.505 26.485 74.505 28 74 C30.58630224 73.91518227 33.14478056 73.88401771 35.73046875 73.90234375 C36.85609978 73.90446617 36.85609978 73.90446617 38.00447083 73.90663147 C40.3988546 73.9122244 42.79314453 73.92477556 45.1875 73.9375 C46.81184761 73.94251592 48.43619668 73.94707866 50.06054688 73.95117188 C54.04042975 73.9613402 58.02010993 73.98091688 62 74 C62 81.59 62 89.18 62 97 C41.54 97 21.08 97 0 97 C0 64.99 0 32.98 0 0 Z " fill="#000000" transform="translate(407,23)"/>
<path d="M0 0 C2.83203125 0.03255208 5.6640625 0.06510417 8.49609375 0.09765625 C13.91991957 10.84029587 19.19227432 21.64282094 24.30859375 32.53515625 C24.82425903 33.6302652 24.82425903 33.6302652 25.3503418 34.74749756 C30.34025984 45.35179316 35.16413916 56.01191425 39.81323242 66.77075195 C42.66692236 73.33967493 45.70262712 79.7750773 49.125 86.06884766 C51.41068393 90.39864913 51.75173367 92.8871357 52.49609375 98.09765625 C44.24609375 98.09765625 35.99609375 98.09765625 27.49609375 98.09765625 C22.49609375 88.09765625 22.49609375 88.09765625 22.49609375 86.09765625 C9.95609375 86.42765625 -2.58390625 86.75765625 -15.50390625 87.09765625 C-17.15390625 90.72765625 -18.80390625 94.35765625 -20.50390625 98.09765625 C-28.75390625 98.09765625 -37.00390625 98.09765625 -45.50390625 98.09765625 C-45.50390625 91.34801033 -45.50390625 91.34801033 -43.87084961 87.90673828 C-43.51304916 87.1379837 -43.15524872 86.36922913 -42.78660583 85.57717896 C-42.1961422 84.3536824 -42.1961422 84.3536824 -41.59375 83.10546875 C-41.18862686 82.24186737 -40.78350372 81.37826599 -40.36610413 80.48849487 C-39.06860435 77.72800051 -37.75565239 74.97521143 -36.44140625 72.22265625 C-35.1597761 69.51357449 -33.88143761 66.80296186 -32.60389709 64.09194946 C-31.76529591 62.31247198 -30.92532433 60.53363965 -30.08396912 58.75546265 C-27.20080483 52.64389009 -24.45043083 46.48533151 -21.77035522 40.2824707 C-19.84622047 35.84021186 -17.79308954 31.52010628 -15.56640625 27.22265625 C-12.13283319 20.51332653 -9.03080121 13.68469392 -6.02954102 6.77197266 C-3.13232522 0.12216557 -3.13232522 0.12216557 0 0 Z M2.49609375 40.09765625 C0.98725162 43.53134219 -0.50944026 46.97019174 -2.00390625 50.41015625 C-2.64779297 51.87485352 -2.64779297 51.87485352 -3.3046875 53.36914062 C-3.91376953 54.77583008 -3.91376953 54.77583008 -4.53515625 56.2109375 C-4.91220703 57.07501221 -5.28925781 57.93908691 -5.67773438 58.8293457 C-6.67502136 61.16511729 -6.67502136 61.16511729 -6.50390625 64.09765625 C0.09609375 64.09765625 6.69609375 64.09765625 13.49609375 64.09765625 C10.43033073 55.95148594 7.20445098 47.97199777 3.49609375 40.09765625 C3.16609375 40.09765625 2.83609375 40.09765625 2.49609375 40.09765625 Z " fill="#000000" transform="translate(523.50390625,21.90234375)"/>
<path d="M0 0 C9.37036254 -0.02255243 18.74070718 -0.0409159 28.11109066 -0.05181217 C32.46168459 -0.05704065 36.81225907 -0.06413765 41.1628418 -0.07543945 C45.35790258 -0.08626959 49.55294459 -0.0922771 53.74801826 -0.09487724 C55.35206968 -0.09673126 56.95612003 -0.10035144 58.5601635 -0.10573006 C60.79916515 -0.11294219 63.0380883 -0.11399087 65.27709961 -0.11352539 C66.55395126 -0.115746 67.83080292 -0.11796661 69.14634705 -0.12025452 C72 0 72 0 73 1 C73.09899523 2.54955559 73.13079524 4.10353673 73.1328125 5.65625 C73.13410156 6.59597656 73.13539063 7.53570313 73.13671875 8.50390625 C73.13285156 9.49261719 73.12898438 10.48132813 73.125 11.5 C73.12886719 12.48871094 73.13273437 13.47742188 73.13671875 14.49609375 C73.13542969 15.43582031 73.13414062 16.37554687 73.1328125 17.34375 C73.13168457 18.21193359 73.13055664 19.08011719 73.12939453 19.97460938 C73 22 73 22 72 23 C64.41 23 56.82 23 49 23 C49 47.42 49 71.84 49 97 C40.75 97 32.5 97 24 97 C24 72.58 24 48.16 24 23 C16.08 23 8.16 23 0 23 C0 15.41 0 7.82 0 0 Z " fill="#000000" transform="translate(320,23)"/>
<path d="M0 0 C15.51 0 31.02 0 47 0 C48.22625047 2.45250093 48.03425355 3.84310435 47.87890625 6.5703125 C47.83056641 7.46621094 47.78222656 8.36210937 47.73242188 9.28515625 C47.67634766 10.22230469 47.62027344 11.15945312 47.5625 12.125 C47.51029297 13.06988281 47.45808594 14.01476563 47.40429688 14.98828125 C47.27443481 17.32579841 47.13784835 19.66294021 47 22 C43.37 22 39.74 22 36 22 C36 39.49 36 56.98 36 75 C39.96 75 43.92 75 48 75 C48 82.26 48 89.52 48 97 C31.83 97 15.66 97 -1 97 C-1 89.74 -1 82.48 -1 75 C2.96 75 6.92 75 11 75 C11 57.51 11 40.02 11 22 C7.37 22 3.74 22 0 22 C0 14.74 0 7.48 0 0 Z " fill="#000000" transform="translate(266,23)"/>
<path d="M0 0 C3.5625 0.4375 3.5625 0.4375 5.33984375 2.47265625 C6.92805979 6.3239533 6.40789626 9.33918045 5.6875 13.3125 C4.76164118 18.6946903 4.53471631 23.04515545 5.5625 28.4375 C4.70527344 28.54707031 3.84804687 28.65664062 2.96484375 28.76953125 C-4.39302142 29.65995891 -4.39302142 29.65995891 -11.3125 32.125 C-15.15540943 33.73902196 -17.44443229 33.4756976 -21.4375 32.4375 C-22.83685013 29.63879973 -22.69015405 27.53251208 -22.4375 24.4375 C-20.25697972 21.55336136 -18.23707516 20.90698518 -14.75 20.25 C-13.94175781 20.09144531 -13.13351563 19.93289062 -12.30078125 19.76953125 C-11.68589844 19.65996094 -11.07101563 19.55039062 -10.4375 19.4375 C-11.406875 18.86 -12.37625 18.2825 -13.375 17.6875 C-16.4375 15.4375 -16.4375 15.4375 -17.4375 13.375 C-17.4375 11.4375 -17.4375 11.4375 -15.4375 8.4375 C-12.625 8.6875 -12.625 8.6875 -9.4375 9.4375 C-7.73828125 11.484375 -7.73828125 11.484375 -6.4375 13.4375 C-6.38851562 12.66664062 -6.33953125 11.89578125 -6.2890625 11.1015625 C-6.21429688 10.09867188 -6.13953125 9.09578125 -6.0625 8.0625 C-5.99289063 7.06476562 -5.92328125 6.06703125 -5.8515625 5.0390625 C-5.19725541 0.92803872 -4.06712293 0.51763383 0 0 Z " fill="#000000" transform="translate(61.4375,35.5625)"/>
<path d="M0 0 C2 3 2 3 1.8125 6.0625 C1 9 1 9 -2 11 C-4.26171875 11.4140625 -4.26171875 11.4140625 -6.6875 11.625 C-7.49574219 11.69976562 -8.30398437 11.77453125 -9.13671875 11.8515625 C-10.05904297 11.92503906 -10.05904297 11.92503906 -11 12 C-10.154375 12.721875 -9.30875 13.44375 -8.4375 14.1875 C-6 17 -6 17 -6.1875 19.8125 C-6.455625 20.534375 -6.72375 21.25625 -7 22 C-10.3125 21.8125 -10.3125 21.8125 -14 21 C-15.9375 18.4375 -15.9375 18.4375 -17 16 C-17.10957031 16.77085937 -17.21914062 17.54171875 -17.33203125 18.3359375 C-17.49058594 19.33882812 -17.64914063 20.34171875 -17.8125 21.375 C-17.96332031 22.37273437 -18.11414063 23.37046875 -18.26953125 24.3984375 C-19 27 -19 27 -22 29 C-28.56603774 28.43396226 -28.56603774 28.43396226 -30 27 C-30.35476392 22.74283298 -30.021738 19.74097325 -28.5 15.75 C-26.57048952 10.50499264 -26.7212681 5.52302098 -27 0 C-26.01 0.33 -25.02 0.66 -24 1 C-19.11291984 1.37325834 -14.47754875 1.28562565 -9.75 -0.0625 C-5.93301123 -1.01674719 -3.73637638 -1.15649745 0 0 Z " fill="#000000" transform="translate(191,164)"/>
<path d="M0 0 C3.20784627 1.12274619 3.97519477 1.82538954 5.5 4.875 C6.03117899 7.86610501 6.3122058 10.84439015 6.5 13.875 C7.5828125 12.39 7.5828125 12.39 8.6875 10.875 C11.11449547 7.93633027 11.11449547 7.93633027 14.25 7.4375 C16.5 7.875 16.5 7.875 17.5 8.875 C17.875 11.1875 17.875 11.1875 17.5 13.875 C15 16.1875 15 16.1875 12.5 17.875 C13.18707031 17.97296875 13.87414062 18.0709375 14.58203125 18.171875 C15.48308594 18.32140625 16.38414062 18.4709375 17.3125 18.625 C18.20582031 18.76421875 19.09914062 18.9034375 20.01953125 19.046875 C23.04548889 20.05711598 23.94845858 21.12758613 25.5 23.875 C25.5 27.2025538 24.89930026 28.44907973 22.625 30.875 C18.36107652 32.23945551 15.81474152 30.98221285 11.63671875 29.6484375 C6.30023307 28.33259171 0.95850831 28.64069201 -4.5 28.875 C-4.39300781 28.26914063 -4.28601563 27.66328125 -4.17578125 27.0390625 C-3.31597107 21.0296365 -3.8926308 16.91309376 -5.8515625 11.20703125 C-6.83698005 7.66308984 -6.52617854 5.39332643 -5.5 1.875 C-2.5 -0.125 -2.5 -0.125 0 0 Z " fill="#000000" transform="translate(169.5,37.125)"/>
<path d="M0 0 C0.85464844 0.30421875 1.70929687 0.6084375 2.58984375 0.921875 C3.44707031 1.21578125 4.30429687 1.5096875 5.1875 1.8125 C5.95964844 2.09609375 6.73179688 2.3796875 7.52734375 2.671875 C10.67665268 3.72164464 12.91548831 3.77319095 16.21484375 3.734375 C17.20871094 3.72535156 18.20257813 3.71632812 19.2265625 3.70703125 C19.98582031 3.69542969 20.74507812 3.68382812 21.52734375 3.671875 C21.19734375 4.661875 20.86734375 5.651875 20.52734375 6.671875 C20.15408541 11.55895516 20.2417181 16.19432625 21.58984375 20.921875 C22.54409094 24.73886377 22.6838412 26.93549862 21.52734375 30.671875 C18.52734375 32.671875 18.52734375 32.671875 15.33984375 32.296875 C14.41171875 32.090625 13.48359375 31.884375 12.52734375 31.671875 C12.18861862 30.25648783 11.85659751 28.83949537 11.52734375 27.421875 C11.34171875 26.63296875 11.15609375 25.8440625 10.96484375 25.03125 C10.52734375 22.671875 10.52734375 22.671875 10.52734375 18.671875 C9.97046875 19.47625 9.41359375 20.280625 8.83984375 21.109375 C6.30028403 23.92348172 5.24116721 24.47641061 1.52734375 24.671875 C0.86734375 24.341875 0.20734375 24.011875 -0.47265625 23.671875 C-0.84765625 21.484375 -0.84765625 21.484375 -0.47265625 18.671875 C1.36696023 16.68164664 3.31920523 15.28197601 5.52734375 13.671875 C4.49673828 13.52492187 4.49673828 13.52492187 3.4453125 13.375 C2.54425781 13.22546875 1.64320312 13.0759375 0.71484375 12.921875 C-0.17847656 12.78265625 -1.07179688 12.6434375 -1.9921875 12.5 C-5.01780716 11.48987186 -5.92493805 10.42165434 -7.47265625 7.671875 C-7.39555081 4.51055193 -6.98256506 3.17835393 -4.73046875 0.94140625 C-2.47265625 -0.328125 -2.47265625 -0.328125 0 0 Z " fill="#000000" transform="translate(44.47265625,159.328125)"/>
<path d="M0 0 C1.65 0 3.3 0 5 0 C7.91958841 6.82098531 10.68962152 13.68513698 13.3125 20.625 C13.57885254 21.32367188 13.84520508 22.02234375 14.11962891 22.7421875 C16 27.75980282 16 27.75980282 16 30 C14.35 29.67 12.7 29.34 11 29 C10.67 27.02 10.34 25.04 10 23 C5.38 23 0.76 23 -4 23 C-4.66 25.31 -5.32 27.62 -6 30 C-7.65 30 -9.3 30 -11 30 C-9.54313076 25.93697346 -8.08424874 21.87467248 -6.625 17.8125 C-6.2125 16.66201172 -5.8 15.51152344 -5.375 14.32617188 C-4.97539063 13.21435547 -4.57578125 12.10253906 -4.1640625 10.95703125 C-3.79748535 9.93585205 -3.4309082 8.91467285 -3.05322266 7.86254883 C-2.08134493 5.22108701 -1.05967386 2.60730031 0 0 Z " fill="#000000" transform="translate(887,156)"/>
<path d="M0 0 C1.65 0 3.3 0 5 0 C6.66918945 1.8359375 6.66918945 1.8359375 8.11328125 4.375 C8.9012207 5.72851562 8.9012207 5.72851562 9.70507812 7.109375 C10.23552734 8.06328125 10.76597656 9.0171875 11.3125 10 C11.86228516 10.95390625 12.41207031 11.9078125 12.97851562 12.890625 C14.33567948 15.25090996 15.67002559 17.62428813 17 20 C17.33 13.4 17.66 6.8 18 0 C19.32 0 20.64 0 22 0 C22 9.9 22 19.8 22 30 C17 29 17 29 15.42260742 27.23413086 C14.98795166 26.48526611 14.5532959 25.73640137 14.10546875 24.96484375 C13.62529297 24.15595703 13.14511719 23.34707031 12.65039062 22.51367188 C12.16763672 21.66353516 11.68488281 20.81339844 11.1875 19.9375 C10.43436523 18.65649414 10.43436523 18.65649414 9.66601562 17.34960938 C8.4294444 15.24154986 7.21278085 13.1218355 6 11 C5.67 16.94 5.34 22.88 5 29 C3.35 29.33 1.7 29.66 0 30 C0 20.1 0 10.2 0 0 Z " fill="#000000" transform="translate(549,209)"/>
<path d="M0 0 C1.2065625 0.0309375 1.2065625 0.0309375 2.4375 0.0625 C4.0061719 4.17343684 5.57269738 8.28518296 7.13720703 12.39770508 C7.67014044 13.7976714 8.20366785 15.19741174 8.73779297 16.59692383 C9.50382935 18.60439394 10.26775102 20.61265746 11.03125 22.62109375 C11.49208984 23.83079834 11.95292969 25.04050293 12.42773438 26.28686523 C13.4375 29.0625 13.4375 29.0625 13.4375 30.0625 C11.7875 30.0625 10.1375 30.0625 8.4375 30.0625 C7.7775 27.7525 7.1175 25.4425 6.4375 23.0625 C2.0334216 23.07506513 -2.23674877 23.19407267 -6.5625 24.0625 C-9.03224473 26.90350775 -9.03224473 26.90350775 -9.5625 30.0625 C-10.8825 30.0625 -12.2025 30.0625 -13.5625 30.0625 C-12.91010417 26.31378575 -11.86842394 22.91927635 -10.53125 19.359375 C-10.13292969 18.2971875 -9.73460937 17.235 -9.32421875 16.140625 C-8.90785156 15.04234375 -8.49148438 13.9440625 -8.0625 12.8125 C-7.64613281 11.69875 -7.22976563 10.585 -6.80078125 9.4375 C-3.27455129 0.0798671 -3.27455129 0.0798671 0 0 Z " fill="#000000" transform="translate(834.5625,155.9375)"/>
<path d="M0 0 C1.65 0 3.3 0 5 0 C6.64967223 4.24851988 8.29407262 8.49906097 9.9375 12.75 C10.64036133 14.55984375 10.64036133 14.55984375 11.35742188 16.40625 C11.80537109 17.56640625 12.25332031 18.7265625 12.71484375 19.921875 C13.12855225 20.99018555 13.54226074 22.05849609 13.96850586 23.15917969 C14.79651044 25.4395729 15.4786479 27.63520673 16 30 C14.35 30 12.7 30 11 30 C10.34 28.02 9.68 26.04 9 24 C4.71 24 0.42 24 -4 24 C-4.99 25.98 -5.98 27.96 -7 30 C-8.32 30 -9.64 30 -11 30 C-9.0173911 22.93487572 -6.592956 16.16273165 -3.8125 9.375 C-3.44447266 8.46621094 -3.07644531 7.55742187 -2.69726562 6.62109375 C-1.80216521 4.41240441 -0.9030465 2.20544952 0 0 Z " fill="#000000" transform="translate(551,156)"/>
<path d="M0 0 C1.2065625 0.0309375 1.2065625 0.0309375 2.4375 0.0625 C4.0061719 4.17343684 5.57269738 8.28518296 7.13720703 12.39770508 C7.67014044 13.7976714 8.20366785 15.19741174 8.73779297 16.59692383 C9.50382935 18.60439394 10.26775102 20.61265746 11.03125 22.62109375 C11.49208984 23.83079834 11.95292969 25.04050293 12.42773438 26.28686523 C13.4375 29.0625 13.4375 29.0625 13.4375 30.0625 C11.7875 30.0625 10.1375 30.0625 8.4375 30.0625 C7.7775 27.4225 7.1175 24.7825 6.4375 22.0625 C0.0025 22.5575 0.0025 22.5575 -6.5625 23.0625 C-7.5525 25.3725 -8.5425 27.6825 -9.5625 30.0625 C-10.8825 30.0625 -12.2025 30.0625 -13.5625 30.0625 C-12.91010417 26.31378575 -11.86842394 22.91927635 -10.53125 19.359375 C-10.13292969 18.2971875 -9.73460937 17.235 -9.32421875 16.140625 C-8.90785156 15.04234375 -8.49148438 13.9440625 -8.0625 12.8125 C-7.64613281 11.69875 -7.22976563 10.585 -6.80078125 9.4375 C-3.27455129 0.0798671 -3.27455129 0.0798671 0 0 Z " fill="#000000" transform="translate(298.5625,208.9375)"/>
<path d="M0 0 C1.01610352 -0.04350586 1.01610352 -0.04350586 2.05273438 -0.08789062 C5.53087119 -0.13208982 7.33157661 0.03362626 10.10546875 2.20703125 C12.95893783 6.00461109 13.09049362 8.55717533 12.6875 13.3125 C10.89187595 16.06579021 9.63495078 17.83877461 6.6875 19.3125 C8.50059003 23.08977089 10.5948259 26.68519822 12.6875 30.3125 C10.41015625 30.62109375 10.41015625 30.62109375 7.6875 30.3125 C5.80859375 28.16015625 5.80859375 28.16015625 4.125 25.375 C1.56615919 20.92426075 1.56615919 20.92426075 -3.3125 19.3125 C-3.3125 22.9425 -3.3125 26.5725 -3.3125 30.3125 C-4.9625 30.3125 -6.6125 30.3125 -8.3125 30.3125 C-8.33715746 26.2007744 -8.35533959 22.08907722 -8.36743164 17.97729492 C-8.3724708 16.57754772 -8.37930216 15.1778058 -8.38793945 13.77807617 C-8.4000232 11.77004223 -8.40519807 9.76197043 -8.41015625 7.75390625 C-8.41539307 6.54420166 -8.42062988 5.33449707 -8.42602539 4.08813477 C-8.20674879 -1.27306016 -4.39207458 0.06162874 0 0 Z M-4.3125 4.3125 C-3.9825 7.9425 -3.6525 11.5725 -3.3125 15.3125 C-0.899375 15.4053125 -0.899375 15.4053125 1.5625 15.5 C2.46742188 15.53480469 3.37234375 15.56960937 4.3046875 15.60546875 C5.09101562 15.50878906 5.87734375 15.41210938 6.6875 15.3125 C9.07548682 12.40664313 9.07548682 12.40664313 8.375 8.6875 C8.04636877 5.48745688 8.04636877 5.48745688 6.6875 4.3125 C3.0183423 4.16939713 -0.63965441 4.27028338 -4.3125 4.3125 Z " fill="#000000" transform="translate(860.3125,155.6875)"/>
<path d="M0 0 C5 1 5 1 6.66918945 2.94946289 C7.14573975 3.7821167 7.62229004 4.61477051 8.11328125 5.47265625 C8.9012207 6.82133789 8.9012207 6.82133789 9.70507812 8.19726562 C10.23552734 9.14279297 10.76597656 10.08832031 11.3125 11.0625 C12.13717773 12.4865918 12.13717773 12.4865918 12.97851562 13.93945312 C14.33371289 16.28453361 15.66880324 18.64121276 17 21 C17.33 14.07 17.66 7.14 18 0 C19.32 0 20.64 0 22 0 C22 9.9 22 19.8 22 30 C20.68 30.33 19.36 30.66 18 31 C13.54571212 24.06817922 9.2090599 17.08353984 5 10 C4.67 16.6 4.34 23.2 4 30 C2.68 30.33 1.36 30.66 0 31 C0 20.77 0 10.54 0 0 Z " fill="#000000" transform="translate(279,156)"/>
<path d="M0 0 C3.52813724 2.29646771 5.54012558 4.47577628 7.3125 8.375 C8.07893944 13.6768646 7.99205227 17.93748558 5.6875 22.8125 C1.81242402 26.99350303 -1.32417617 29.5790396 -7.125 29.875 C-11.75780476 29.63322063 -15.18233364 28.44429075 -18.6875 25.375 C-22.30537678 21.2433419 -23.35862135 17.01400727 -23.0625 11.58203125 C-22.29048297 7.03838938 -20.63843077 3.80540043 -16.88671875 1.0546875 C-11.22265962 -2.09079 -5.95578037 -3.0159058 0 0 Z M-16.6875 6.375 C-19.27786348 9.78957004 -19.11858741 13.20782171 -18.6875 17.375 C-17.0593054 20.45693978 -15.65740938 22.63920667 -12.875 24.75 C-9.57774117 25.69207395 -7.1062401 25.78760656 -3.6875 25.375 C-0.71510759 23.59023759 1.73854027 21.52291945 3.3125 18.375 C3.9451744 13.85589717 4.08544479 9.71246822 1.375 5.875 C-2.07673791 3.05725477 -4.09869984 2.34793784 -8.46875 2.13671875 C-12.04267431 2.52053809 -14.06394628 4.00740274 -16.6875 6.375 Z " fill="#000000" transform="translate(908.6875,209.625)"/>
<path d="M0 0 C14 0 14 0 20 3 C24.65135358 8.15420261 25.36275058 11.35338087 25.2734375 18.16796875 C24.84983893 22.5552397 23.79483731 24.56020024 21 28 C14.15708659 32.61152861 8.95005212 31 0 31 C0 20.77 0 10.54 0 0 Z M4 4 C4 11.59 4 19.18 4 27 C12.73492352 27.65728154 12.73492352 27.65728154 19 24 C21.55843733 19.76004556 21.55172531 15.82759648 21 11 C19.70894885 7.80634716 18.78892438 6.48727682 15.875 4.6875 C12.03380806 3.65114018 12.03380806 3.65114018 4 4 Z " fill="#000000" transform="translate(780,208)"/>
<path d="M0 0 C4.71878688 1.69164058 7.20582817 3.86048618 10 8 C11.75138012 13.25414036 11.98290651 18.74824575 9.5 23.8125 C6.90708431 27.75226589 3.42484877 29.59436195 -1 31 C-7.02271795 31.84529375 -10.16366517 30.3482318 -15 27 C-19.01390511 22.58470438 -19.352797 18.26350421 -19.27734375 12.50390625 C-18.71819813 7.45584508 -15.97249426 4.85941353 -12.3125 1.625 C-8.01904096 -0.48122519 -4.69600276 -0.69133254 0 0 Z M-14 9 C-15.59799033 12.19598065 -15.36773555 15.52322756 -15 19 C-13.69275775 22.09610007 -12.38200098 23.66294032 -9.875 25.875 C-5.74769405 27.49003276 -2.2219711 27.31788631 2 26 C5.31061889 22.77214658 6.90262215 20.29025647 7.25 15.6875 C6.92556346 10.90206099 5.52056699 8.63320159 2.3125 5.1875 C-4.53896848 1.66917835 -9.11706174 3.99796569 -14 9 Z " fill="#000000" transform="translate(468,156)"/>
<path d="M0 0 C2.51625 -0.0825 5.0325 -0.165 7.625 -0.25 C8.79603271 -0.30462402 8.79603271 -0.30462402 9.99072266 -0.36035156 C15.11015175 -0.44093156 17.94217924 0.63885329 22 4 C25.55117553 8.97164574 25.83161624 14.09459028 25 20 C24.02194199 22.96180279 22.97906276 24.44805065 21 27 C15 30 15 30 0 30 C0 20.1 0 10.2 0 0 Z M4 3 C4 10.59 4 18.18 4 26 C14.19454925 27.10931932 14.19454925 27.10931932 18.125 23.625 C21.0962928 19.46519008 21.26133527 17.13959355 21 12 C19.97393308 8.52715812 18.87304498 6.22289471 16 4 C13.03756274 3.42052719 13.03756274 3.42052719 9.8125 3.3125 C7.894375 3.209375 5.97625 3.10625 4 3 Z " fill="#000000" transform="translate(591,209)"/>
<path d="M0 0 C4.12442495 2.55135206 7.18436938 5.45235916 9 10 C9.78671167 15.61936904 9.22202478 20.22251498 6 25 C1.01761811 29.49629585 -1.964238 30.29429654 -8.52734375 30.21875 C-13.6131517 29.7688207 -16.75003066 26.71425067 -20 23 C-21.71284149 17.86147552 -22.17813909 11.93742302 -20.12890625 6.828125 C-15.46726072 -0.32482617 -8.02075143 -2.57456219 0 0 Z M-14 6 C-17.00663524 9.50774111 -17.47019797 12.59738458 -17.29296875 17.0703125 C-16.86045852 19.91911321 -15.77720667 21.76203604 -14 24 C-9.97818385 26.68121076 -6.72763609 26.81344335 -2 26 C1.0717718 24.28922026 3.40485654 22.19028693 5 19 C5.34444547 13.74720662 5.57741751 10.17365376 2 6 C-4.03234374 2.27791557 -7.96765626 2.27791557 -14 6 Z " fill="#000000" transform="translate(534,209)"/>
<path d="M0 0 C4.32520505 2.24577955 7.5262068 4.78538936 10 9 C11.3497509 14.04197271 11.60104528 18.52991712 9.5 23.375 C7.14219583 27.35027393 4.41791882 29.61398625 0 31 C-4.74519652 31.79362172 -8.00073908 31.50905745 -12.3125 29.3125 C-16.48568258 25.72162196 -19.05480797 23.15591072 -19.9375 17.625 C-20.24133101 13.05234332 -19.37722609 9.98760505 -17 6 C-12.10763906 0.85435607 -7.07476937 -0.96657191 0 0 Z M-13.60546875 8.16015625 C-15.98170354 11.2951887 -16.52228046 14.12766345 -16 18 C-14.77680345 21.43435954 -13.08588357 24.13878199 -10.1875 26.4375 C-5.42260114 27.66275971 -2.09713407 27.55891735 2.3125 25.3125 C5.21970726 22.81094957 6.23769819 21.72680887 7 18 C7.15214132 13.32165455 6.60075474 10.72398648 3.5625 7.0625 C0.6176444 4.69225037 -0.44184898 4.07660896 -4.1875 3.5625 C-8.61228675 4.07026241 -10.45045827 5.13334032 -13.60546875 8.16015625 Z " fill="#000000" transform="translate(698,208)"/>
<path d="M0 0 C2.51625 -0.0825 5.0325 -0.165 7.625 -0.25 C8.79603271 -0.30462402 8.79603271 -0.30462402 9.99072266 -0.36035156 C15.1016396 -0.44079758 17.97367245 0.60430206 22 4 C24.78900643 8.8342778 25.94645414 13.46850136 25 19 C23.65480677 23.0355797 22.2161251 26.0163694 18.875 28.71875 C15.11200414 30.39573729 11.71558523 30.32679622 7.6875 30.1875 C5.150625 30.125625 2.61375 30.06375 0 30 C0 20.1 0 10.2 0 0 Z M4 4 C4 11.26 4 18.52 4 26 C14.05466032 26.96605606 14.05466032 26.96605606 18.125 24.0625 C20.58550929 20.04366816 21.16165226 16.6794074 21 12 C20.0833851 8.48630954 18.89236122 6.20519117 16 4 C13.02807238 3.63680691 13.02807238 3.63680691 9.8125 3.8125 C6.9353125 3.9053125 6.9353125 3.9053125 4 4 Z " fill="#000000" transform="translate(353,209)"/>
<path d="M0 0 C2.0625 0.4375 2.0625 0.4375 4 1 C4.01981934 1.68626465 4.03963867 2.3725293 4.06005859 3.07958984 C4.15510945 6.17845779 4.26486847 9.27663294 4.375 12.375 C4.4059375 13.45523438 4.436875 14.53546875 4.46875 15.6484375 C4.50742187 16.6796875 4.54609375 17.7109375 4.5859375 18.7734375 C4.6173584 19.72653809 4.6487793 20.67963867 4.68115234 21.66162109 C4.78555796 24.18895176 4.78555796 24.18895176 7 26 C10.5 26.33333333 10.5 26.33333333 14 26 C16.56136221 23.43863779 16.29666857 22.33438669 16.4140625 18.7734375 C16.45273437 17.7421875 16.49140625 16.7109375 16.53125 15.6484375 C16.5621875 14.56820312 16.593125 13.48796875 16.625 12.375 C16.66367187 11.28703125 16.70234375 10.1990625 16.7421875 9.078125 C16.83666247 6.38558835 16.92222431 3.69306243 17 1 C18.9375 0.4375 18.9375 0.4375 21 0 C23.34069545 2.34069545 22.233241 8.04728168 22.25 11.1875 C22.270625 12.13431641 22.29125 13.08113281 22.3125 14.05664062 C22.34269345 19.46504207 22.0883548 23.34886325 19 28 C15.52276822 30.98048439 12.38020737 31.5318101 7.9296875 31.35546875 C4.79876522 30.77871991 3.14581999 29.27204469 1 27 C-0.93150343 23.860938 -1.24728736 21.49288234 -1.23046875 17.83203125 C-1.22853516 16.85685547 -1.22660156 15.88167969 -1.22460938 14.87695312 C-1.21236328 13.86568359 -1.20011719 12.85441406 -1.1875 11.8125 C-1.18685547 10.78962891 -1.18621094 9.76675781 -1.18554688 8.71289062 C-1.14032251 1.14032251 -1.14032251 1.14032251 0 0 Z " fill="#000000" transform="translate(812,208)"/>
<path d="M0 0 C5.94 0 11.88 0 18 0 C18 1.32 18 2.64 18 4 C13.71 4 9.42 4 5 4 C5 6.97 5 9.94 5 13 C8.63 13 12.26 13 16 13 C16.33 14.32 16.66 15.64 17 17 C13.04 17 9.08 17 5 17 C5 19.97 5 22.94 5 26 C9.62 26 14.24 26 19 26 C19 27.32 19 28.64 19 30 C12.73 30 6.46 30 0 30 C0 20.1 0 10.2 0 0 Z " fill="#000000" transform="translate(703,156)"/>
<path d="M0 0 C1.9140625 0.12109375 1.9140625 0.12109375 4 1 C5.2734375 3.16015625 5.2734375 3.16015625 6.375 6.0625 C6.78878906 7.13371094 7.20257812 8.20492187 7.62890625 9.30859375 C8.08136719 10.52675781 8.53382813 11.74492187 9 13 C9.54933748 14.42894129 10.10017393 15.85730704 10.65234375 17.28515625 C11.20686147 18.73133717 11.76025996 20.17794779 12.3125 21.625 C12.5791748 22.32375244 12.84584961 23.02250488 13.12060547 23.74243164 C15 28.76341762 15 28.76341762 15 31 C13.35 30.67 11.7 30.34 10 30 C9.34 27.69 8.68 25.38 8 23 C3.71 23 -0.58 23 -5 23 C-5.66 25.31 -6.32 27.62 -7 30 C-8.65 30.33 -10.3 30.66 -12 31 C-10.0200675 23.96622835 -7.62609161 17.20437917 -4.875 10.4375 C-4.51535156 9.53708984 -4.15570312 8.63667969 -3.78515625 7.70898438 C-1.13620022 1.13620022 -1.13620022 1.13620022 0 0 Z M1 7 C0.3291288 8.6232687 -0.33657029 10.24867578 -1 11.875 C-1.37125 12.77992188 -1.7425 13.68484375 -2.125 14.6171875 C-3.11490226 16.88983858 -3.11490226 16.88983858 -3 19 C-0.03 19 2.94 19 6 19 C5.55149342 17.18504338 5.09090429 15.37306866 4.625 13.5625 C4.24214844 12.04849609 4.24214844 12.04849609 3.8515625 10.50390625 C3.27426046 7.84429676 3.27426046 7.84429676 1 7 Z " fill="#000000" transform="translate(760,208)"/>
<path d="M0 0 C1.65 0 3.3 0 5 0 C10.445 14.85 10.445 14.85 16 30 C14.35 30 12.7 30 11 30 C10.34 27.69 9.68 25.38 9 23 C4.5959216 23.01256513 0.32575123 23.13157267 -4 24 C-6.46974473 26.84100775 -6.46974473 26.84100775 -7 30 C-8.32 30 -9.64 30 -11 30 C-10.34760417 26.25128575 -9.30592394 22.85677635 -7.96875 19.296875 C-7.57042969 18.2346875 -7.17210937 17.1725 -6.76171875 16.078125 C-6.34535156 14.97984375 -5.92898438 13.8815625 -5.5 12.75 C-5.08363281 11.63625 -4.66726563 10.5225 -4.23828125 9.375 C-1.13212451 1.13212451 -1.13212451 1.13212451 0 0 Z M2 6 C1.32404685 7.41225926 0.65959941 8.83002905 0 10.25 C-0.37125 11.03890625 -0.7425 11.8278125 -1.125 12.640625 C-2.23181252 15.2056657 -2.23181252 15.2056657 -2 19 C0.97 19 3.94 19 7 19 C6.54803755 17.39402675 6.08817673 15.79027492 5.625 14.1875 C5.36976563 13.29417969 5.11453125 12.40085938 4.8515625 11.48046875 C4.04733339 8.79532104 4.04733339 8.79532104 2 6 Z " fill="#000000" transform="translate(766,156)"/>
<path d="M0 0 C1.65 0 3.3 0 5 0 C6.27833161 3.121983 7.54622092 6.24811122 8.8125 9.375 C9.34713867 10.68017578 9.34713867 10.68017578 9.89257812 12.01171875 C12.27910096 17.92328908 14.27761674 23.86220259 16 30 C13.625 29.8125 13.625 29.8125 11 29 C10.34 27.35 9.68 25.7 9 24 C4.71 24 0.42 24 -4 24 C-4.66 25.98 -5.32 27.96 -6 30 C-7.65 30 -9.3 30 -11 30 C-9.73342048 26.31102524 -8.46097182 22.62410057 -7.1875 18.9375 C-6.83107422 17.89916016 -6.47464844 16.86082031 -6.10742188 15.79101562 C-4.25278261 10.43127831 -2.32621271 5.17343837 0 0 Z M2 6 C1.32694982 7.60149886 0.66177773 9.20631029 0 10.8125 C-0.37125 11.70582031 -0.7425 12.59914062 -1.125 13.51953125 C-2.16633237 16.0331433 -2.16633237 16.0331433 -2 19 C0.97 19 3.94 19 7 19 C6.731875 17.5975 6.46375 16.195 6.1875 14.75 C6.03667969 13.96109375 5.88585937 13.1721875 5.73046875 12.359375 C4.91980019 9.74095891 3.74878103 8.08895488 2 6 Z " fill="#000000" transform="translate(636,156)"/>
<path d="M0 0 C3.3125 1.6875 3.3125 1.6875 6 4 C6.875 6.75 6.875 6.75 7 9 C5.35 9 3.7 9 2 9 C1.67 8.01 1.34 7.02 1 6 C-1.85078091 5.23283149 -1.85078091 5.23283149 -5 5 C-6.98029682 6.06345052 -6.98029682 6.06345052 -8 8 C-8 9.32 -8 10.64 -8 12 C-7.16855469 12.18175781 -6.33710937 12.36351562 -5.48046875 12.55078125 C-4.39378906 12.80214844 -3.30710937 13.05351562 -2.1875 13.3125 C-0.56908203 13.67794922 -0.56908203 13.67794922 1.08203125 14.05078125 C3.9981142 14.99938655 5.28543941 15.49545416 7 18 C7.67855386 21.07045624 7.57365678 23.91450627 7 27 C4.8496863 29.84396328 3.35034658 30.76802364 -0.16015625 31.37109375 C-4.15209944 31.59101716 -6.47166344 31.29718932 -10 29.3125 C-12.18168017 26.78993231 -12.72608098 25.2870282 -13 22 C-11.68 22 -10.36 22 -9 22 C-8.566875 22.66 -8.13375 23.32 -7.6875 24 C-6.0434676 26.42601327 -6.0434676 26.42601327 -2.375 26.3125 C0.83524938 26.37771762 0.83524938 26.37771762 2 25 C2.04063832 23.33382885 2.042721 21.66611905 2 20 C1.16855469 19.68546875 0.33710937 19.3709375 -0.51953125 19.046875 C-1.60621094 18.61890625 -2.69289063 18.1909375 -3.8125 17.75 C-5.43091797 17.12351563 -5.43091797 17.12351563 -7.08203125 16.484375 C-10.09883563 14.94972217 -11.39293642 13.94441019 -13 11 C-13.0625 7.5 -13.0625 7.5 -12 4 C-8.15131948 0.50933627 -5.16687209 -0.86114535 0 0 Z " fill="#000000" transform="translate(934,208)"/>
<path d="M0 0 C1.2065625 0.0309375 1.2065625 0.0309375 2.4375 0.0625 C4.0061719 4.17343684 5.57269738 8.28518296 7.13720703 12.39770508 C7.67014044 13.7976714 8.20366785 15.19741174 8.73779297 16.59692383 C9.50382935 18.60439394 10.26775102 20.61265746 11.03125 22.62109375 C11.49208984 23.83079834 11.95292969 25.04050293 12.42773438 26.28686523 C13.4375 29.0625 13.4375 29.0625 13.4375 30.0625 C11.7875 30.0625 10.1375 30.0625 8.4375 30.0625 C6.9525 26.5975 6.9525 26.5975 5.4375 23.0625 C1.4775 23.0625 -2.4825 23.0625 -6.5625 23.0625 C-7.5525 25.3725 -8.5425 27.6825 -9.5625 30.0625 C-10.8825 30.0625 -12.2025 30.0625 -13.5625 30.0625 C-12.91010417 26.31378575 -11.86842394 22.91927635 -10.53125 19.359375 C-10.13292969 18.2971875 -9.73460937 17.235 -9.32421875 16.140625 C-8.90785156 15.04234375 -8.49148438 13.9440625 -8.0625 12.8125 C-7.64613281 11.69875 -7.22976563 10.585 -6.80078125 9.4375 C-3.27455129 0.0798671 -3.27455129 0.0798671 0 0 Z M-0.5625 6.0625 C-1.23845315 7.47475926 -1.90290059 8.89252905 -2.5625 10.3125 C-2.93375 11.10140625 -3.305 11.8903125 -3.6875 12.703125 C-4.79431252 15.2681657 -4.79431252 15.2681657 -4.5625 19.0625 C-1.5925 19.0625 1.3775 19.0625 4.4375 19.0625 C3.98553755 17.45652675 3.52567673 15.85277492 3.0625 14.25 C2.80726563 13.35667969 2.55203125 12.46335938 2.2890625 11.54296875 C1.48483339 8.85782104 1.48483339 8.85782104 -0.5625 6.0625 Z " fill="#000000" transform="translate(454.5625,208.9375)"/>
<path d="M0 0 C3.38186376 1.9427728 4.70264591 2.99357079 5.8125 6.75 C5.874375 7.4925 5.93625 8.235 6 9 C3.625 8.6875 3.625 8.6875 1 8 C0.34 7.01 -0.32 6.02 -1 5 C-4 4.58333333 -4 4.58333333 -7 5 C-7.66 5.66 -8.32 6.32 -9 7 C-9.09354647 9.07153693 -9.09354647 9.07153693 -8 11 C-5.58915645 12.18420407 -5.58915645 12.18420407 -2.6875 12.9375 C0.87244804 14.12723556 2.87461974 14.89171705 5.75 17.375 C7.38429627 20.80702216 7.21858027 22.42042046 6 26 C4.10878207 28.25726011 2.62707151 29.68646424 0 31 C-4.99691647 31.37712577 -7.99067725 31.09290612 -12 28 C-14 25 -14 25 -14 22 C-9.30985915 22.63380282 -9.30985915 22.63380282 -7.625 24.625 C-7.08875 25.07875 -6.5525 25.5325 -6 26 C-2.35458155 25.76522801 -2.35458155 25.76522801 1 25 C2.01111093 21.95086772 2.01111093 21.95086772 1 19 C-2.00900821 17.97154794 -5.05215692 17.13862177 -8.1171875 16.29296875 C-11.58154006 14.73917377 -12.49648087 13.43811718 -14 10 C-14 6.14298481 -13.47315166 4.54484131 -10.9375 1.625 C-7.13974946 -0.47588328 -4.24888557 -0.84977711 0 0 Z " fill="#000000" transform="translate(321,156)"/>
<path d="M0 0 C5.94 0 11.88 0 18 0 C18 1.32 18 2.64 18 4 C13.38 4 8.76 4 4 4 C4 6.97 4 9.94 4 13 C7.96 13 11.92 13 16 13 C16 14.32 16 15.64 16 17 C12.04 17 8.08 17 4 17 C4 19.97 4 22.94 4 26 C8.95 26 13.9 26 19 26 C19 27.32 19 28.64 19 30 C12.73 30 6.46 30 0 30 C0 20.1 0 10.2 0 0 Z " fill="#000000" transform="translate(622,209)"/>
<path d="M0 0 C3.32783116 1.9532922 4.71192872 3.02498951 5.8125 6.75 C5.874375 7.4925 5.93625 8.235 6 9 C4.68 9 3.36 9 2 9 C0.25 7 0.25 7 -1 5 C-3.31 5.33 -5.62 5.66 -8 6 C-8 7.65 -8 9.3 -8 11 C-7.41992188 11.15855469 -6.83984375 11.31710938 -6.2421875 11.48046875 C-0.77094302 13.11461933 3.12460129 14.7271245 7 19 C7.625 22 7.625 22 7 25 C5.20006226 27.69990662 3.916227 29.5418865 1 31 C-3.16932747 31.27339852 -5.98565304 31.39691838 -9.875 29.875 C-12.55666761 27.50882269 -13.16180346 25.42898584 -14 22 C-11.625 22.3125 -11.625 22.3125 -9 23 C-8.34 23.99 -7.68 24.98 -7 26 C-4.79274927 26.36362818 -4.79274927 26.36362818 -2.375 26.1875 C-1.55773437 26.16042969 -0.74046875 26.13335937 0.1015625 26.10546875 C1.04128906 26.05326172 1.04128906 26.05326172 2 26 C2 23.69 2 21.38 2 19 C1.25234375 18.81824219 0.5046875 18.63648438 -0.265625 18.44921875 C-1.25046875 18.19785156 -2.2353125 17.94648438 -3.25 17.6875 C-4.22453125 17.44386719 -5.1990625 17.20023438 -6.203125 16.94921875 C-9.0577351 15.98040554 -10.85163815 15.10820555 -13 13 C-13.8719346 6.13351499 -13.8719346 6.13351499 -11.125 2.5625 C-7.30062471 -0.24954066 -4.75921314 -0.40332315 0 0 Z " fill="#000000" transform="translate(727,208)"/>
<path d="M0 0 C5.94 0 11.88 0 18 0 C17.67 1.32 17.34 2.64 17 4 C12.71 4 8.42 4 4 4 C4 6.97 4 9.94 4 13 C7.96 13 11.92 13 16 13 C16 14.32 16 15.64 16 17 C12.04 17 8.08 17 4 17 C4 19.97 4 22.94 4 26 C8.62 26 13.24 26 18 26 C18 27.32 18 28.64 18 30 C12.06 30 6.12 30 0 30 C0 20.1 0 10.2 0 0 Z " fill="#000000" transform="translate(328,209)"/>
<path d="M0 0 C1.32 0 2.64 0 4 0 C4.01458252 0.71655762 4.02916504 1.43311523 4.04418945 2.17138672 C4.11849 5.40647983 4.21520861 8.64052019 4.3125 11.875 C4.33505859 13.00292969 4.35761719 14.13085938 4.38085938 15.29296875 C4.41630859 16.36933594 4.45175781 17.44570312 4.48828125 18.5546875 C4.51446533 19.54968262 4.54064941 20.54467773 4.56762695 21.56982422 C4.78165161 22.77276123 4.78165161 22.77276123 5 24 C8.8503105 26.56687367 10.58569763 25.83288724 15 25 C16.82740271 19.4657926 17.40036883 14.37015175 17.625 8.5625 C17.66367187 7.73556641 17.70234375 6.90863281 17.7421875 6.05664062 C17.83553092 4.03808927 17.91880961 2.01907669 18 0 C19.32 0 20.64 0 22 0 C22.08761663 3.54150893 22.14059739 7.08273633 22.1875 10.625 C22.21263672 11.62402344 22.23777344 12.62304688 22.26367188 13.65234375 C22.31869079 19.19091443 22.21332909 23.25321171 19 28 C16.06791771 30.44340191 14.31177679 30.96659534 10.5 31.375 C6.7513131 30.97335498 4.92557776 30.3404622 2 28 C-0.07966106 24.75092466 -0.23589209 22.17385686 -0.1953125 18.359375 C-0.18886719 17.28945312 -0.18242187 16.21953125 -0.17578125 15.1171875 C-0.15902344 14.00601563 -0.14226562 12.89484375 -0.125 11.75 C-0.11597656 10.62335938 -0.10695313 9.49671875 -0.09765625 8.3359375 C-0.07410658 5.55707635 -0.0412168 2.7786461 0 0 Z " fill="#000000" transform="translate(396,156)"/>
<path d="M0 0 C2.1875 -0.5 2.1875 -0.5 5 0 C7.3981167 2.83885166 10 6.18795831 10 10 C10.66 10 11.32 10 12 10 C12.37125 8.9171875 12.37125 8.9171875 12.75 7.8125 C14.14165906 4.68126711 15.61176811 2.458474 18 0 C19.32 0 20.64 0 22 0 C20.56331808 4.17943832 18.42072113 7.40473165 15.828125 10.9375 C14.75242868 13.01948863 14.75242868 13.01948863 15.6328125 15.35546875 C17.20750626 18.4013764 18.87503592 21.36348646 20.625 24.3125 C21.25664063 25.38113281 21.88828125 26.44976562 22.5390625 27.55078125 C23.02117188 28.35902344 23.50328125 29.16726562 24 30 C21.73828125 30.3046875 21.73828125 30.3046875 19 30 C16.98046875 27.8828125 16.98046875 27.8828125 15.1875 25.125 C14.58292969 24.22007812 13.97835937 23.31515625 13.35546875 22.3828125 C12 20 12 20 12 18 C11.34 18 10.68 18 10 18 C9.773125 18.680625 9.54625 19.36125 9.3125 20.0625 C7.7054628 23.65920231 5.86907538 27.24980896 3 30 C1.68 30 0.36 30 -1 30 C0.63133282 25.48001443 2.98748087 22.09627837 5.85546875 18.28125 C7.20891019 16.05356828 7.20891019 16.05356828 6.8671875 13.51171875 C5.90599332 10.72771938 4.65325401 8.70157592 2.9375 6.3125 C0 2.2 0 2.2 0 0 Z " fill="#000000" transform="translate(570,156)"/>
<path d="M0 0 C15 0 15 0 20 4 C21.09673607 6.65220309 21.204207 9.14677439 21 12 C19.42569236 15.62090756 18.31117074 16.79255284 15 19 C11.31619572 19.26655603 7.69863419 19.08702669 4 19 C4 22.63 4 26.26 4 30 C2.68 30 1.36 30 0 30 C0 20.1 0 10.2 0 0 Z M4 4 C4 7.63 4 11.26 4 15 C5.588125 15.061875 7.17625 15.12375 8.8125 15.1875 C9.70582031 15.22230469 10.59914063 15.25710937 11.51953125 15.29296875 C14.02989563 15.1949132 14.02989563 15.1949132 15.8359375 13.71484375 C17.35762109 11.84442975 17.35762109 11.84442975 16.8125 8.375 C16.4103125 6.704375 16.4103125 6.704375 16 5 C13.47524538 3.73762269 11.68799534 3.90143596 8.875 3.9375 C7.26625 3.958125 5.6575 3.97875 4 4 Z " fill="#000000" transform="translate(798,156)"/>
<path d="M0 0 C1.32 0 2.64 0 4 0 C4.01981934 0.65073486 4.03963867 1.30146973 4.06005859 1.97192383 C4.15529299 4.91919151 4.26497818 7.86574885 4.375 10.8125 C4.4059375 11.83666016 4.436875 12.86082031 4.46875 13.91601562 C4.50742187 14.89892578 4.54609375 15.88183594 4.5859375 16.89453125 C4.6173584 17.80050049 4.6487793 18.70646973 4.68115234 19.63989258 C4.86027919 22.26525392 4.86027919 22.26525392 7 25 C8.901994 25.47558206 8.901994 25.47558206 11 25.375 C12.051875 25.38660156 12.051875 25.38660156 13.125 25.3984375 C15.41058594 25.140914 15.41058594 25.140914 17 22 C17.3663859 19.58286521 17.3663859 19.58286521 17.4140625 16.89453125 C17.45273437 15.91162109 17.49140625 14.92871094 17.53125 13.91601562 C17.5621875 12.89185547 17.593125 11.86769531 17.625 10.8125 C17.66367187 9.77673828 17.70234375 8.74097656 17.7421875 7.67382812 C17.83648296 5.11606378 17.92208202 2.55830713 18 0 C19.32 0 20.64 0 22 0 C22.08736736 3.72901814 22.14051482 7.45777165 22.1875 11.1875 C22.21263672 12.24259766 22.23777344 13.29769531 22.26367188 14.38476562 C22.27333984 15.40634766 22.28300781 16.42792969 22.29296875 17.48046875 C22.3086792 18.41785889 22.32438965 19.35524902 22.34057617 20.32104492 C21.92907749 23.55787288 20.9183649 25.3796095 19 28 C14.7741215 30.81725233 10.96375312 30.79958384 6 30 C3.17575712 27.80977082 1.58491397 26.16982793 0 23 C-0.08449628 21.2595583 -0.10723024 19.51590278 -0.09765625 17.7734375 C-0.09443359 16.7421875 -0.09121094 15.7109375 -0.08789062 14.6484375 C-0.07951172 13.56820312 -0.07113281 12.48796875 -0.0625 11.375 C-0.05798828 10.28703125 -0.05347656 9.1990625 -0.04882812 8.078125 C-0.03701776 5.38536211 -0.02054778 2.69270812 0 0 Z " fill="#000000" transform="translate(384,209)"/>
<path d="M0 0 C1.640625 1.09765625 1.640625 1.09765625 3.953125 3.09765625 C2.963125 4.58265625 2.963125 4.58265625 1.953125 6.09765625 C1.31375 5.76765625 0.674375 5.43765625 0.015625 5.09765625 C-4.09837236 3.75431017 -7.76374162 3.36052279 -12.046875 4.09765625 C-15.04802708 6.0984243 -16.51668625 7.56983424 -17.70703125 11 C-18.48476932 14.93399547 -18.19875688 16.78220928 -16.421875 20.47265625 C-13.920349 23.23750078 -12.66471993 24.32240376 -9.046875 25.09765625 C-5.05075852 24.76464654 -1.70427059 23.71121313 1.953125 22.09765625 C2.613125 23.08765625 3.273125 24.07765625 3.953125 25.09765625 C-0.50677372 28.55407776 -4.2867721 30.51912719 -10.046875 30.09765625 C-14.92086409 28.80933751 -18.16251262 26.46701323 -21.046875 22.34765625 C-23.29272724 18.22262152 -24.16249232 14.71184948 -23.046875 10.09765625 C-21.30242896 6.13171159 -19.07052175 3.06108849 -15.921875 0.09765625 C-10.89150036 -1.65203928 -4.97374767 -2.1926254 0 0 Z " fill="#000000" transform="translate(749.046875,156.90234375)"/>
<path d="M0 0 C0.66 0.53625 1.32 1.0725 2 1.625 C2 2.615 2 3.605 2 4.625 C1.01 4.955 0.02 5.285 -1 5.625 C-1.9075 5.13 -2.815 4.635 -3.75 4.125 C-7.77352121 2.26799021 -9.76536807 2.44871335 -14 3.625 C-17.49265664 5.92280042 -17.94458815 7.39596435 -18.9375 11.5 C-19.26535158 15.58670805 -18.29550357 18.18174464 -16 21.625 C-11.95398061 24.32234626 -8.74576236 24.05718852 -4 23.625 C-1.06919326 22.75846586 -1.06919326 22.75846586 1 21.625 C1.33 22.945 1.66 24.265 2 25.625 C-2.17744586 29.08219657 -6.14381055 29.13648998 -11.34375 28.96875 C-15.85101451 28.38545695 -18.42447816 26.57588127 -21.24609375 23.08203125 C-24.09898095 18.76814992 -24.98259981 14.71847655 -24 9.625 C-22.05308703 4.24364504 -19.02915471 1.40708559 -14 -1.375 C-9.05985328 -3.02171557 -4.6193783 -2.11721505 0 0 Z " fill="#000000" transform="translate(494,210.375)"/>
<path d="M0 0 C0.66 0.53625 1.32 1.0725 2 1.625 C2 2.615 2 3.605 2 4.625 C1.01 4.955 0.02 5.285 -1 5.625 C-1.9075 5.13 -2.815 4.635 -3.75 4.125 C-7.77352121 2.26799021 -9.76536807 2.44871335 -14 3.625 C-16.69074271 5.32441645 -17.70809648 6.62797887 -18.6015625 9.6796875 C-19.35078969 14.0428341 -19.2715319 16.10066253 -17.1875 20.125 C-14.62741455 23.06487506 -14.62741455 23.06487506 -11.01171875 23.79296875 C-6.54865688 23.83047347 -3.06256295 23.72180669 1 21.625 C1.66 22.615 2.32 23.605 3 24.625 C-1.6396762 28.63769293 -5.27379038 29.26507966 -11.37890625 29 C-15.2361067 28.44815016 -17.21263295 27.34438249 -20 24.625 C-23.31187254 19.83887699 -24.85469676 15.50104022 -24 9.625 C-21.98750397 4.26588135 -19.04524593 1.41598711 -14 -1.375 C-9.05985328 -3.02171557 -4.6193783 -2.11721505 0 0 Z " fill="#000000" transform="translate(436,210.375)"/>
<path d="M0 0 C0.61875 0.556875 1.2375 1.11375 1.875 1.6875 C1.875 2.6775 1.875 3.6675 1.875 4.6875 C-2.125 4.6875 -2.125 4.6875 -4.125 3.6875 C-9.93845947 3.15384487 -9.93845947 3.15384487 -15.0625 5.5625 C-17.9269988 8.51380179 -18.09776966 9.27223738 -18.375 13.5 C-18.31224639 17.34191522 -17.6823517 19.68922559 -15.125 22.6875 C-10.99169325 25.21340968 -7.74973975 24.69653413 -3.125 23.6875 C-0.78911677 22.73165562 -0.78911677 22.73165562 0.875 21.6875 C1.535 23.0075 2.195 24.3275 2.875 25.6875 C-1.18326679 28.60437926 -5.14136322 29.83938226 -10.125 29.6875 C-15.35248189 28.09267502 -18.5930116 25.84278047 -22.125 21.6875 C-23.57336189 17.34241432 -23.64842771 13.22858905 -23.125 8.6875 C-18.17863369 -0.69353956 -10.14246727 -4.25983625 0 0 Z " fill="#000000" transform="translate(620.125,157.3125)"/>
<path d="M0 0 C6.93 0 13.86 0 21 0 C21.33 1.32 21.66 2.64 22 4 C19.03 4 16.06 4 13 4 C13 12.58 13 21.16 13 30 C11.35 30.33 9.7 30.66 8 31 C8 22.09 8 13.18 8 4 C5.03 4 2.06 4 -1 4 C-0.67 2.68 -0.34 1.36 0 0 Z " fill="#000000" transform="translate(861,208)"/>
<path d="M0 0 C7.59 0 15.18 0 23 0 C23 1.32 23 2.64 23 4 C20.03 4 17.06 4 14 4 C14 12.58 14 21.16 14 30 C13.34 30.33 12.68 30.66 12 31 C11.01 30.67 10.02 30.34 9 30 C9 21.42 9 12.84 9 4 C6.03 4 3.06 4 0 4 C0 2.68 0 1.36 0 0 Z " fill="#000000" transform="translate(368,156)"/>
<path d="M0 0 C1.98 0.495 1.98 0.495 4 1 C4 9.58 4 18.16 4 27 C7.96 27 11.92 27 16 27 C15.67 28.32 15.34 29.64 15 31 C9.72 31 4.44 31 -1 31 C-1.0229132 26.74578286 -1.04283889 22.49177843 -1.05493164 18.23754883 C-1.05997101 16.78929927 -1.06680253 15.34105483 -1.07543945 13.89282227 C-1.08752247 11.81525412 -1.09323211 9.73775303 -1.09765625 7.66015625 C-1.10289307 6.40855713 -1.10812988 5.15695801 -1.11352539 3.86743164 C-1 1 -1 1 0 0 Z " fill="#000000" transform="translate(842,208)"/>
<path d="M0 0 C1.98 0.495 1.98 0.495 4 1 C4 9.58 4 18.16 4 27 C7.96 27 11.92 27 16 27 C16 28.32 16 29.64 16 31 C13.35409986 31.02684679 10.70846904 31.04676357 8.0625 31.0625 C7.30775391 31.07087891 6.55300781 31.07925781 5.77539062 31.08789062 C3.85005687 31.09652441 1.92464419 31.05224333 0 31 C-1.85714057 29.14285943 -1.13048681 26.07492951 -1.1328125 23.59375 C-1.13410156 22.29308594 -1.13539063 20.99242187 -1.13671875 19.65234375 C-1.13462402 18.97155762 -1.1325293 18.29077148 -1.13037109 17.58935547 C-1.1250224 15.50871485 -1.1303168 13.42829011 -1.13671875 11.34765625 C-1.13542969 10.04699219 -1.13414062 8.74632812 -1.1328125 7.40625 C-1.13168457 6.20291016 -1.13055664 4.99957031 -1.12939453 3.75976562 C-1 1 -1 1 0 0 Z " fill="#000000" transform="translate(659,208)"/>
<path d="M0 0 C1.65 0 3.3 0 5 0 C5 8.58 5 17.16 5 26 C8.96 26 12.92 26 17 26 C17 27.32 17 28.64 17 30 C11.39 30 5.78 30 0 30 C0 20.1 0 10.2 0 0 Z " fill="#000000" transform="translate(266,209)"/>
<path d="M0 0 C7.26 0 14.52 0 22 0 C22.33 1.32 22.66 2.64 23 4 C19.7 4 16.4 4 13 4 C13 12.91 13 21.82 13 31 C11.68 31 10.36 31 9 31 C9 22.09 9 13.18 9 4 C6.03 4 3.06 4 0 4 C0 2.68 0 1.36 0 0 Z " fill="#000000" transform="translate(331,156)"/>
<path d="M0 0 C7.26 0 14.52 0 22 0 C22 1.32 22 2.64 22 4 C19.03 4 16.06 4 13 4 C13 12.91 13 21.82 13 31 C11.68 30.67 10.36 30.34 9 30 C9 21.42 9 12.84 9 4 C6.03 4 3.06 4 0 4 C0 2.68 0 1.36 0 0 Z " fill="#000000" transform="translate(494,156)"/>
<path d="M0 0 C7.26 0 14.52 0 22 0 C22 1.32 22 2.64 22 4 C19.03 4 16.06 4 13 4 C13 12.91 13 21.82 13 31 C11.68 31 10.36 31 9 31 C9 22.09 9 13.18 9 4 C6.03 4 3.06 4 0 4 C0 2.68 0 1.36 0 0 Z " fill="#000000" transform="translate(423,156)"/>
<path d="M0 0 C7.26 0 14.52 0 22 0 C22 1.32 22 2.64 22 4 C19.03 4 16.06 4 13 4 C13 12.58 13 21.16 13 30 C11.68 30 10.36 30 9 30 C9 21.42 9 12.84 9 4 C6.03 4 3.06 4 0 4 C0 2.68 0 1.36 0 0 Z " fill="#000000" transform="translate(676,156)"/>
<path d="M0 0 C1.32 0 2.64 0 4 0 C4 8.58 4 17.16 4 26 C7.96 26 11.92 26 16 26 C16 27.32 16 28.64 16 30 C10.72 30 5.44 30 0 30 C0 20.1 0 10.2 0 0 Z " fill="#000000" transform="translate(657,156)"/>
<path d="M0 0 C1.32 0 2.64 0 4 0 C4 8.58 4 17.16 4 26 C7.96 26 11.92 26 16 26 C16 27.32 16 28.64 16 30 C10.72 30 5.44 30 0 30 C0 20.1 0 10.2 0 0 Z " fill="#000000" transform="translate(522,156)"/>
<path d="M0 0 C1.98 0.495 1.98 0.495 4 1 C4 10.57 4 20.14 4 30 C2.68 30.33 1.36 30.66 0 31 C-1.85714057 29.14285943 -1.13048681 26.07492951 -1.1328125 23.59375 C-1.13410156 22.29308594 -1.13539063 20.99242187 -1.13671875 19.65234375 C-1.13462402 18.97155762 -1.1325293 18.29077148 -1.13037109 17.58935547 C-1.1250224 15.50871485 -1.1303168 13.42829011 -1.13671875 11.34765625 C-1.13542969 10.04699219 -1.13414062 8.74632812 -1.1328125 7.40625 C-1.13168457 6.20291016 -1.13055664 4.99957031 -1.12939453 3.75976562 C-1 1 -1 1 0 0 Z " fill="#000000" transform="translate(267,156)"/>
<path d="M0 0 C1.32 0 2.64 0 4 0 C4 9.9 4 19.8 4 30 C2.68 30.33 1.36 30.66 0 31 C0 20.77 0 10.54 0 0 Z " fill="#000000" transform="translate(359,156)"/>
<path d="M0 0 C1.32 0 2.64 0 4 0 C4 9.9 4 19.8 4 30 C2.68 30 1.36 30 0 30 C0 20.1 0 10.2 0 0 Z " fill="#000000" transform="translate(502,209)"/>
<path d="M0 0 C2.15502531 3.23253796 2.46856135 4.25150923 2 8 C0.8125 9.8125 0.8125 9.8125 -1 11 C-3.85480169 11.42822025 -5.34492892 11.40659584 -7.8125 9.875 C-9.57002414 7.09996189 -9.46822746 5.21070255 -9 2 C-6.14911792 -1.27323499 -4.00227856 -1.47452368 0 0 Z M-5 2 C-5.33 3.65 -5.66 5.3 -6 7 C-4.68 7.33 -3.36 7.66 -2 8 C-1.67 6.35 -1.34 4.7 -1 3 C-2.32 2.67 -3.64 2.34 -5 2 Z " fill="#000000" transform="translate(184,228)"/>
<path d="M0 0 C3 1 3 1 4 3 C4.66 2.01 5.32 1.02 6 0 C6.66 0 7.32 0 8 0 C8 3.96 8 7.92 8 12 C6.68 11.34 5.36 10.68 4 10 C2.02 10.99 2.02 10.99 0 12 C0 8.04 0 4.08 0 0 Z " fill="#000000" transform="translate(24,227)"/>
<path d="M0 0 C3 1 3 1 4 3 C4.99 2.01 5.98 1.02 7 0 C8 1 8 1 8.09765625 3.50390625 C8.08605469 4.51324219 8.07445313 5.52257812 8.0625 6.5625 C8.05347656 7.57441406 8.04445313 8.58632812 8.03515625 9.62890625 C8.02355469 10.41136719 8.01195313 11.19382813 8 12 C7.01 12 6.02 12 5 12 C4.67 11.34 4.34 10.68 4 10 C2.02 10.99 2.02 10.99 0 12 C0 8.04 0 4.08 0 0 Z " fill="#000000" transform="translate(58,227)"/>
<path d="M0 0 C0.66 0.33 1.32 0.66 2 1 C2 2.32 2 3.64 2 5 C2.99 5 3.98 5 5 5 C5.33 3.35 5.66 1.7 6 0 C6.66 0.33 7.32 0.66 8 1 C8 4.63 8 8.26 8 12 C7.01 12 6.02 12 5 12 C5 10.68 5 9.36 5 8 C4.01 8 3.02 8 2 8 C2 9.32 2 10.64 2 12 C1.01 12 0.02 12 -1 12 C-1.02687279 10.18757948 -1.04633715 8.37504767 -1.0625 6.5625 C-1.07410156 5.55316406 -1.08570313 4.54382813 -1.09765625 3.50390625 C-1 1 -1 1 0 0 Z " fill="#000000" transform="translate(130,227)"/>
<path d="M0 0 C6.875 0.875 6.875 0.875 8 2 C8.04384447 3.66608987 8.0396713 5.33380554 8 7 C8 7.99 8 8.98 8 10 C8 10.66 8 11.32 8 12 C7.236875 11.814375 6.47375 11.62875 5.6875 11.4375 C2.91032625 10.77180827 2.91032625 10.77180827 0 12 C0 8.04 0 4.08 0 0 Z M3 3 C3.33 3.99 3.66 4.98 4 6 C4.33 5.01 4.66 4.02 5 3 C4.34 3 3.68 3 3 3 Z " fill="#000000" transform="translate(191,227)"/>
<path d="M0 0 C0.99 0.33 1.98 0.66 3 1 C3 3.64 3 6.28 3 9 C3.66 8.67 4.32 8.34 5 8 C5.40729228 5.67843403 5.74438677 3.3431213 6 1 C6.99 1 7.98 1 9 1 C9.36248013 8.37042925 9.36248013 8.37042925 7.8125 11.0625 C5.23719907 12.3945522 3.70282604 11.85352401 1 11 C0 10 0 10 -0.09765625 7.71484375 C-0.08605469 6.79832031 -0.07445312 5.88179687 -0.0625 4.9375 C-0.05347656 4.01839844 -0.04445313 3.09929687 -0.03515625 2.15234375 C-0.02355469 1.44207031 -0.01195312 0.73179687 0 0 Z " fill="#000000" transform="translate(10,227)"/>
<path d="M0 0 C3 1 3 1 4.6875 4.3125 C6 8 6 8 6 12 C5.01 11.67 4.02 11.34 3 11 C3 10.34 3 9.68 3 9 C-0.11785113 9.64644661 -0.11785113 9.64644661 -1 12 C-1.99 12 -2.98 12 -4 12 C-3.45660208 7.43545749 -2.20536179 4.0271824 0 0 Z " fill="#000000" transform="translate(112,227)"/>
<path d="M0 0 C0.66 0.33 1.32 0.66 2 1 C2 3.64 2 6.28 2 9 C2.99 9 3.98 9 5 9 C5 6.36 5 3.72 5 1 C5.99 1 6.98 1 8 1 C8.05399736 2.45792884 8.09279177 3.91642712 8.125 5.375 C8.14820312 6.18710938 8.17140625 6.99921875 8.1953125 7.8359375 C8 10 8 10 6 12 C2.9375 11.75 2.9375 11.75 0 11 C-1.62651522 7.74696956 -1.11453156 4.60774398 -1 1 C-0.67 0.67 -0.34 0.34 0 0 Z " fill="#000000" transform="translate(72,227)"/>
<path d="M0 0 C4.3590077 3.48720616 4.94552183 6.72760915 6 12 C5.01 12 4.02 12 3 12 C2.67 11.34 2.34 10.68 2 10 C1.01 9.67 0.02 9.34 -1 9 C-1.33 9.99 -1.66 10.98 -2 12 C-2.99 11.67 -3.98 11.34 -5 11 C-4.35731563 9.35293447 -3.71076198 7.70737825 -3.0625 6.0625 C-2.70285156 5.14597656 -2.34320313 4.22945312 -1.97265625 3.28515625 C-1 1 -1 1 0 0 Z M0 5 C1 7 1 7 1 7 Z " fill="#000000" transform="translate(41,227)"/>
<path d="M0 0 C2.625 0.375 2.625 0.375 5 1 C5 1.99 5 2.98 5 4 C3.68 4.33 2.36 4.66 1 5 C2.32 5.33 3.64 5.66 5 6 C5.625 7.875 5.625 7.875 6 10 C5.34 10.66 4.68 11.32 4 12 C0.875 11.625 0.875 11.625 -2 11 C-1.814375 10.443125 -1.62875 9.88625 -1.4375 9.3125 C-0.83463761 6.94391319 -0.83463761 6.94391319 -1.5625 4.375 C-1.706875 3.59125 -1.85125 2.8075 -2 2 C-1.34 1.34 -0.68 0.68 0 0 Z " fill="#000000" transform="translate(153,227)"/>
<path d="M0 0 C2.00720923 0.28674418 4.0085944 0.61866701 6 1 C6 1.66 6 2.32 6 3 C4.68 3 3.36 3 2 3 C2 3.66 2 4.32 2 5 C3.32 5 4.64 5 6 5 C6 7.33333333 6 9.66666667 6 12 C3.69 12 1.38 12 -1 12 C-1.02687279 10.18757948 -1.04633715 8.37504767 -1.0625 6.5625 C-1.07410156 5.55316406 -1.08570312 4.54382813 -1.09765625 3.50390625 C-1 1 -1 1 0 0 Z " fill="#000000" transform="translate(86,227)"/>
<path d="M0 0 C3 1 3 1 3.94921875 2.7421875 C4.31466797 3.79792969 4.31466797 3.79792969 4.6875 4.875 C5.06455078 5.92300781 5.06455078 5.92300781 5.44921875 6.9921875 C6 9 6 9 6 12 C5.401875 11.690625 4.80375 11.38125 4.1875 11.0625 C1.91043228 9.89790296 1.91043228 9.89790296 -1 9 C-1.33 9.99 -1.66 10.98 -2 12 C-2.66 12 -3.32 12 -4 12 C-3.71640113 10.5608866 -3.42278601 9.12374482 -3.125 7.6875 C-2.96257812 6.88699219 -2.80015625 6.08648437 -2.6328125 5.26171875 C-2 3 -2 3 0 0 Z M0 5 C0 5.66 0 6.32 0 7 C0.66 7 1.32 7 2 7 C2 6.34 2 5.68 2 5 C1.34 5 0.68 5 0 5 Z " fill="#000000" transform="translate(215,227)"/>
<path d="M0 0 C0.66 0 1.32 0 2 0 C2.66 1.32 3.32 2.64 4 4 C4.66 2.68 5.32 1.36 6 0 C6.66 0 7.32 0 8 0 C7.14285714 8.57142857 7.14285714 8.57142857 5 12 C4.01 11.67 3.02 11.34 2 11 C1.05078125 8.71484375 1.05078125 8.71484375 0.3125 5.9375 C0.06113281 5.01839844 -0.19023438 4.09929687 -0.44921875 3.15234375 C-0.63097656 2.44207031 -0.81273438 1.73179687 -1 1 C-0.67 0.67 -0.34 0.34 0 0 Z " fill="#000000" transform="translate(97,227)"/>
<path d="M0 0 C2.64 0.33 5.28 0.66 8 1 C8 1.66 8 2.32 8 3 C7.01 3 6.02 3 5 3 C5 5.97 5 8.94 5 12 C4.01 11.67 3.02 11.34 2 11 C2 8.36 2 5.72 2 3 C1.34 3 0.68 3 0 3 C0 2.01 0 1.02 0 0 Z " fill="#000000" transform="translate(163,227)"/>
<path d="M0 0 C0.66 0.33 1.32 0.66 2 1 C2 4.63 2 8.26 2 12 C1.01 12 0.02 12 -1 12 C-1.02687279 10.18757948 -1.04633715 8.37504767 -1.0625 6.5625 C-1.07410156 5.55316406 -1.08570313 4.54382813 -1.09765625 3.50390625 C-1 1 -1 1 0 0 Z " fill="#000000" transform="translate(144,227)"/>
<path d="M0 0 C0.99 0.33 1.98 0.66 3 1 C3 4.3 3 7.6 3 11 C2.01 11.33 1.02 11.66 0 12 C0 8.04 0 4.08 0 0 Z " fill="#000000" transform="translate(204,227)"/>
<path d="M0 0 C1.65 0 3.3 0 5 0 C1.67692308 5.78461538 1.67692308 5.78461538 -1.75 6.875 C-2.4925 6.91625 -3.235 6.9575 -4 7 C-2.68 4.69 -1.36 2.38 0 0 Z " fill="#000000" transform="translate(529,198)"/>
</svg>
